<svg width="142" height="23" viewBox="0 0 142 23" fill="none" xmlns="http://www.w3.org/2000/svg">
<path d="M18.9453 10.0625C19.5391 10.625 19.8359 11.2266 19.8359 11.8672C19.8359 12.3203 19.6797 12.6953 19.3672 12.9922C19.0547 13.2891 18.6562 13.4375 18.1719 13.4375C18.0312 13.4375 17.8828 13.4297 17.7266 13.4141C17.5859 13.3828 17.4531 13.3359 17.3281 13.2734C17.0156 13.1797 16.6094 12.9609 16.1094 12.6172C15.625 12.2578 15.0234 11.7812 14.3047 11.1875C12.7266 9.875 11.5703 9.0625 10.8359 8.75C9.03906 11.2344 6.60156 12.7344 3.52344 13.25C3.22656 13.3125 2.9375 13.3594 2.65625 13.3906C2.39062 13.4062 2.13281 13.4141 1.88281 13.4141C1.30469 13.4141 1.01562 13.3281 1.01562 13.1562C1.01562 12.9688 1.36719 12.7109 2.07031 12.3828C3.24219 11.8203 4.46094 10.8359 5.72656 9.42969C7.22656 7.72656 8.20312 5.89844 8.65625 3.94531L2.02344 3.99219L1.76562 2.07031H15.5938C16.0312 1.61719 16.3906 1.27344 16.6719 1.03906C16.9531 0.804688 17.1875 0.6875 17.375 0.6875C17.6562 0.6875 17.9688 0.835938 18.3125 1.13281C19.4688 2.19531 20.0469 2.95312 20.0469 3.40625C20.0469 3.82812 19.5859 4.03906 18.6641 4.03906H12.9922C12.7734 4.61719 12.5625 5.1875 12.3594 5.75C12.1719 6.29688 11.9453 6.76563 11.6797 7.15625C14.0859 7.79688 15.4219 8.17188 15.6875 8.28125C17.1406 8.75 18.2266 9.34375 18.9453 10.0625ZM0.453125 21.8047C0.4375 21.6016 0.414062 21.3359 0.382812 21.0078C0.351562 20.6797 0.296875 20.2891 0.21875 19.8359L17.2109 19.9062C17.4141 19.6875 17.6172 19.4688 17.8203 19.25C18.0234 19.0156 18.2266 18.7891 18.4297 18.5703C18.7422 18.2578 18.9922 18.1016 19.1797 18.1016C19.3672 18.1016 19.6172 18.2109 19.9297 18.4297C21.3828 19.6797 22.1094 20.5547 22.1094 21.0547C22.1094 21.4922 21.6094 21.7109 20.6094 21.7109L0.453125 21.8047ZM8.89062 20.6562V12.8516C9.0625 12.8984 9.14844 12.9297 9.14844 12.9453C9.16406 12.9453 9.16406 12.9453 9.14844 12.9453C9.13281 12.9453 9.14844 12.9453 9.19531 12.9453C9.25781 12.9453 9.42969 12.9531 9.71094 12.9688C9.94531 12.9844 10.2578 13.0156 10.6484 13.0625C11.0391 13.1094 11.4219 13.1562 11.7969 13.2031C12.1875 13.25 12.5391 13.2969 12.8516 13.3438C13.1641 13.3906 13.3516 13.4297 13.4141 13.4609C13.8672 13.6328 14.0938 13.9219 14.0938 14.3281C14.0938 14.6562 13.8906 14.9062 13.4844 15.0781C13.0312 15.2031 12.6953 15.2656 12.4766 15.2656V20.5859L8.89062 20.6562ZM36.5703 11.7734C36.5859 11.8672 36.5938 11.9453 36.5938 12.0078C36.6094 12.0703 36.6172 12.1484 36.6172 12.2422C36.6172 12.7422 36.4453 13.1406 36.1016 13.4375C35.7578 13.7344 35.3359 13.8828 34.8359 13.8828C34.3672 13.8828 33.9609 13.75 33.6172 13.4844C33.2891 13.25 32.9844 12.9453 32.7031 12.5703C32.4375 12.1797 32.2109 11.7109 32.0234 11.1641C31.7578 10.4609 31.5 9.8125 31.25 9.21875C31.0156 8.625 30.7891 8.17188 30.5703 7.85938C30.1641 9.125 29.6094 10.25 28.9062 11.2344C28.2031 12.2031 27.3359 12.9609 26.3047 13.5078C25.5391 13.9453 24.8906 14.1641 24.3594 14.1641C24.0781 14.1641 23.9375 14.0781 23.9375 13.9062C23.9375 13.7656 24.1172 13.4922 24.4766 13.0859C24.9766 12.3672 25.3984 11.5859 25.7422 10.7422C26.0859 9.89844 26.3672 8.98438 26.5859 8C26.6797 7.51562 26.7578 7.04688 26.8203 6.59375C26.8984 6.14062 26.9531 5.65625 26.9844 5.14062C27.0312 4.60938 27.0625 4.02344 27.0781 3.38281C27.1094 2.74219 27.125 1.99219 27.125 1.13281C27.4219 1.19531 27.8828 1.25781 28.5078 1.32031C29.1328 1.38281 29.9844 1.42969 31.0625 1.46094C32.3125 1.50781 32.9375 1.80469 32.9375 2.35156C32.9375 2.94531 32.4297 3.3125 31.4141 3.45312C31.3828 3.73438 31.3516 3.96094 31.3203 4.13281C31.3047 4.28906 31.2812 4.44531 31.25 4.60156C31.2344 4.75781 31.2109 4.92969 31.1797 5.11719C31.1641 5.28906 31.1328 5.53125 31.0859 5.84375C31.9766 6.40625 32.7188 6.91406 33.3125 7.36719C33.9219 7.82031 34.4297 8.21875 34.8359 8.5625C35.3203 9.03125 35.7031 9.55469 35.9844 10.1328C36.2812 10.6953 36.4766 11.2422 36.5703 11.7734ZM44.9375 2.28125C45.0156 2.84375 44.4766 3.23437 43.3203 3.45312V13.9766C43.3828 14.3359 43.4141 14.6484 43.4141 14.9141C43.4141 15.4141 43.2109 15.7344 42.8047 15.875C42.5078 15.9688 41.7812 16.0156 40.625 16.0156C39.9844 16.0156 39.625 15.9922 39.5469 15.9453C39.4219 15.8203 39.3594 15.4141 39.3594 14.7266V0.898438C39.6719 0.976563 40.0391 1.03906 40.4609 1.08594C40.8828 1.13281 41.3672 1.17187 41.9141 1.20312C43.0078 1.26562 43.7188 1.33594 44.0469 1.41406C44.625 1.57031 44.9219 1.85938 44.9375 2.28125ZM39.6406 7.55469H35.6797L34.9062 7.60156L34.625 5.79688H39.6172L39.6406 7.55469ZM43.2266 22.2266H28.2734C27.5078 22.2266 26.9609 22.1094 26.6328 21.875C26.2422 21.5781 26.0469 21.0469 26.0469 20.2812V14.8672C26.3125 14.9297 26.75 14.9922 27.3594 15.0547C27.9688 15.1016 28.75 15.1406 29.7031 15.1719C30.8594 15.25 31.4453 15.5156 31.4609 15.9688C31.4297 16.2812 31.2344 16.5156 30.875 16.6719C30.75 16.7031 30.6172 16.7422 30.4766 16.7891C30.3359 16.8359 30.2031 16.875 30.0781 16.9062V19.1328C30.0781 19.6328 30.1641 19.9688 30.3359 20.1406C30.5078 20.3125 30.8594 20.3984 31.3906 20.3984H39.9688C40.125 20.2266 40.2812 20.0625 40.4375 19.9062C40.5938 19.75 40.75 19.5859 40.9062 19.4141C41.2188 19.1328 41.5 18.9922 41.75 18.9922C41.9531 18.9922 42.1406 19.0469 42.3125 19.1562C43.8906 20.3125 44.6797 21.1406 44.6797 21.6406C44.6797 22.0312 44.1953 22.2266 43.2266 22.2266ZM59.375 9.99219C59.3906 10.1172 59.3984 10.2344 59.3984 10.3438C59.4141 10.4375 59.4219 10.5234 59.4219 10.6016C59.4219 11.0703 59.2266 11.3516 58.8359 11.4453C58.6328 11.5078 57.8203 11.5391 56.3984 11.5391C56.0859 11.5391 55.8984 11.4609 55.8359 11.3047C55.8359 11.2734 55.8359 11.1953 55.8359 11.0703C55.8359 10.9453 55.8438 10.7656 55.8594 10.5312H52.2734C52.2734 11.0938 52.1328 11.4141 51.8516 11.4922C51.6953 11.5391 50.8281 11.5625 49.25 11.5625C48.9688 11.5625 48.8047 11.5312 48.7578 11.4688C48.7266 11.4062 48.7109 11.1875 48.7109 10.8125V1.25C48.9453 1.3125 49.1953 1.35937 49.4609 1.39062C49.7266 1.40625 50.0156 1.42188 50.3281 1.4375C50.5938 1.45312 50.8594 1.46094 51.125 1.46094C51.3906 1.46094 51.6562 1.46875 51.9219 1.48438C52.2031 1.5 52.3438 1.5625 52.3438 1.67188C52.3438 1.71875 52.3203 1.78125 52.2734 1.85938H55.8594C56.0312 1.73437 56.1953 1.61719 56.3516 1.50781C56.5078 1.38281 56.6719 1.25781 56.8438 1.13281C57.0938 0.976563 57.3125 0.898438 57.5 0.898438C57.6875 0.898438 58.0859 1.03125 58.6953 1.29688C59.8828 1.85938 60.4766 2.33594 60.4766 2.72656C60.4766 2.99219 60.1094 3.28125 59.375 3.59375V9.99219ZM55.8828 8.79688V3.54688H52.2969V8.79688H55.8828ZM69.0312 8.14062H66.5938V9.6875C66.6562 10.0469 66.6875 10.3594 66.6875 10.625C66.6875 11.125 66.4844 11.4453 66.0781 11.5859C65.7812 11.6797 65.0547 11.7266 63.8984 11.7266C63.2422 11.7266 62.8828 11.6953 62.8203 11.6328C62.6953 11.5391 62.6328 11.1328 62.6328 10.4141V0.921875C62.9453 1 63.3125 1.0625 63.7344 1.10938C64.1562 1.15625 64.6406 1.19531 65.1875 1.22656C66.2812 1.28906 66.9922 1.35937 67.3203 1.4375C67.8984 1.59375 68.1953 1.88281 68.2109 2.30469C68.2891 2.86719 67.75 3.25781 66.5938 3.47656V6.28906H67.0625C67.4844 5.46094 67.8672 5.04688 68.2109 5.04688C68.4297 5.04688 68.6641 5.1875 68.9141 5.46875C69.7578 6.46875 70.1797 7.16406 70.1797 7.55469C70.1797 7.94531 69.7969 8.14062 69.0312 8.14062ZM66.3125 17.7734C66.3281 17.8359 66.3359 17.8984 66.3359 17.9609C66.3359 18.0078 66.3359 18.0547 66.3359 18.1016C66.3359 18.5391 65.9844 18.8203 65.2812 18.9453C65.1719 18.9609 64.9844 18.9766 64.7188 18.9922C64.4531 18.9922 64.1016 18.9922 63.6641 18.9922C62.8828 18.9922 62.5156 19 62.5625 19.0156C62.4688 18.9844 62.4219 18.8672 62.4219 18.6641H53.1641V19.7422C53.1641 20.3672 53.6172 20.6797 54.5234 20.6797H62.8906C63.0469 20.5547 63.2031 20.4297 63.3594 20.3047C63.5156 20.1797 63.6797 20.0547 63.8516 19.9297C64.1172 19.7266 64.3594 19.625 64.5781 19.625C64.8594 19.625 65.1875 19.7656 65.5625 20.0469C66.8125 20.9688 67.4375 21.6406 67.4375 22.0625C67.4375 22.4531 67.0156 22.6484 66.1719 22.6484H51.7109C51.0234 22.6484 50.4766 22.5 50.0703 22.2031C49.5859 21.8594 49.3438 21.3672 49.3438 20.7266V16.1797C49.5781 16.2891 50.5078 16.3516 52.1328 16.3672C52.8984 16.3828 53.2812 16.5078 53.2812 16.7422C53.2812 16.8047 53.2734 16.8516 53.2578 16.8828H62.4688V14.9609H50.4453L49.1094 15.1016L48.8281 13.1094H62.1172C63.2109 12.4844 63.875 12.1719 64.1094 12.1719C64.25 12.1719 64.4609 12.2344 64.7422 12.3594C66.5078 13 67.3906 13.5391 67.3906 13.9766C67.3906 14.2891 67.0312 14.5859 66.3125 14.8672V17.7734ZM81.2891 4.0625H76.8359V19.2266C76.8359 19.5391 76.8594 19.75 76.9062 19.8594C76.9688 19.9688 77.125 20.0391 77.375 20.0703H79.0625C79.7344 19.1641 80.2031 18.7109 80.4688 18.7109C80.6875 18.7109 80.9297 18.8672 81.1953 19.1797C82.0391 20.1953 82.4609 20.9062 82.4609 21.3125C82.4609 21.6875 82.0312 21.875 81.1719 21.875H74.8203C73.7734 21.875 73.25 21.0938 73.25 19.5312V1.57812C73.8438 1.75 74.6953 1.84375 75.8047 1.85938C76.5859 1.89063 76.9766 1.98438 76.9766 2.14062C76.9766 2.1875 76.9375 2.27344 76.8594 2.39844H78.8281C79.5 1.63281 79.9453 1.25 80.1641 1.25C80.3984 1.25 80.7188 1.45312 81.125 1.85938C81.8594 2.64063 82.2266 3.20313 82.2266 3.54688C82.2266 3.89062 81.9141 4.0625 81.2891 4.0625ZM86.9141 20.6562C86.9609 21.0156 86.9844 21.2734 86.9844 21.4297C86.9844 21.8984 86.8203 22.1875 86.4922 22.2969C86.2891 22.4062 85.6641 22.4609 84.6172 22.4609C84.3828 22.4609 84.1953 22.4531 84.0547 22.4375C83.9297 22.4219 83.8359 22.375 83.7734 22.2969C83.7109 22.2344 83.6719 22.1328 83.6562 21.9922C83.6406 21.8672 83.6328 21.6875 83.6328 21.4531V1.01562C84.1797 1.04688 84.7188 1.08594 85.25 1.13281C85.7812 1.17969 86.3125 1.22656 86.8438 1.27344C87.75 1.36719 88.2031 1.6875 88.2031 2.23438C88.2031 2.4375 88.0391 2.63281 87.7109 2.82031C87.3984 2.99219 87.1328 3.0625 86.9141 3.03125V20.6562ZM88.6719 0.640625C89.2656 0.828125 90.3906 0.992188 92.0469 1.13281C93.125 1.22656 93.6719 1.46875 93.6875 1.85938C93.7188 2.25 93.625 2.53125 93.4062 2.70312C93.2031 2.85937 92.8203 2.98438 92.2578 3.07812V20.6797C92.2578 21.6328 92.1719 22.1953 92 22.3672C91.7969 22.5547 91.0469 22.6484 89.75 22.6484C89.1719 22.6484 88.8438 22.6094 88.7656 22.5312C88.6875 22.4531 88.6484 22.1797 88.6484 21.7109L88.6719 0.640625ZM89.375 12.6172H86.0234V10.7891H89.3984L89.375 12.6172ZM108.125 18.4062C108.203 18.7656 108.266 19.0781 108.312 19.3438C108.359 19.6094 108.383 19.8281 108.383 20C108.383 20.75 108.203 21.3125 107.844 21.6875C107.484 22.0625 107.047 22.25 106.531 22.25C105.938 22.25 105.383 22.0234 104.867 21.5703C104.367 21.1328 104.055 20.5312 103.93 19.7656C103.711 18.9062 103.531 18.2109 103.391 17.6797C103.25 17.1484 103.133 16.7734 103.039 16.5547C102.836 15.8516 102.656 15.1797 102.5 14.5391C102.344 13.8828 102.117 13.2266 101.82 12.5703C101.695 13.6953 101.406 14.7734 100.953 15.8047C100.5 16.8359 100.047 17.7734 99.5938 18.6172C98.8594 19.9922 98.0312 21 97.1094 21.6406C96.25 22.2656 95.6562 22.5781 95.3281 22.5781C95.2031 22.5781 95.1406 22.5078 95.1406 22.3672C95.1406 22.1484 95.3438 21.6953 95.75 21.0078C96.1719 20.1328 96.5547 19.0156 96.8984 17.6562C97.2578 16.2812 97.5547 14.7266 97.7891 12.9922C98.0391 11.2578 98.2266 9.375 98.3516 7.34375C98.4766 5.3125 98.5156 3.1875 98.4688 0.96875L102.125 1.32031C103.344 1.33594 103.984 1.58594 104.047 2.07031C104.062 2.50781 103.93 2.8125 103.648 2.98438C103.461 3.07812 103.062 3.17188 102.453 3.26562C102.469 3.70312 102.469 4.21875 102.453 4.8125C102.453 5.39062 102.438 6 102.406 6.64062C102.375 7.26562 102.328 7.89062 102.266 8.51562C102.219 9.14062 102.156 9.72656 102.078 10.2734C103.859 11.8828 105.227 13.3594 106.18 14.7031C107.148 16.0469 107.797 17.2812 108.125 18.4062ZM116.305 2.09375C116.336 2.45313 116.18 2.72656 115.836 2.91406C115.602 3.02344 115.18 3.14062 114.57 3.26562V20.2578C114.711 20.8047 114.781 21.2109 114.781 21.4766C114.781 21.9453 114.578 22.2656 114.172 22.4375C113.766 22.5625 113.094 22.625 112.156 22.625C111.438 22.625 111.016 22.5938 110.891 22.5312C110.656 22.4219 110.539 22.1797 110.539 21.8047C110.539 21.6016 110.562 21.3125 110.609 20.9375V0.78125C110.953 0.859375 111.336 0.921875 111.758 0.96875C112.195 1 112.68 1.02344 113.211 1.03906C113.758 1.05469 114.211 1.07031 114.57 1.08594C114.93 1.10156 115.188 1.125 115.344 1.15625C115.969 1.29688 116.289 1.60938 116.305 2.09375ZM117.5 12.7109H113.633V10.7656L115.109 10.7188C115.75 9.92188 116.211 9.52344 116.492 9.52344C116.695 9.52344 116.93 9.65625 117.195 9.92188C117.992 10.9531 118.391 11.6641 118.391 12.0547C118.391 12.4141 118.094 12.6328 117.5 12.7109ZM132.359 11.8906C132.328 13.1406 131.891 13.7656 131.047 13.7656C130.656 13.7656 130.164 13.5781 129.57 13.2031C129.164 12.9844 128.766 12.2734 128.375 11.0703C127.938 9.74219 127.547 8.85938 127.203 8.42188C126.703 9.78125 126.039 10.8828 125.211 11.7266C124.398 12.5547 123.406 13.2109 122.234 13.6953C121.859 13.8516 121.523 13.9844 121.227 14.0938C120.93 14.1875 120.648 14.2344 120.383 14.2344C120.164 14.2344 120.055 14.1719 120.055 14.0469C120.055 13.9375 120.195 13.7422 120.477 13.4609C121.195 12.7734 121.812 12.0703 122.328 11.3516C122.859 10.6328 123.297 9.875 123.641 9.07812C123.984 8.26562 124.242 7.40625 124.414 6.5C124.602 5.59375 124.719 4.60156 124.766 3.52344H122.398L121.578 3.61719L121.367 1.76562L122.352 1.8125H128.984C129.719 1.07812 130.219 0.710938 130.484 0.710938C130.672 0.710938 130.852 0.796875 131.023 0.96875C131.617 1.54687 132.062 2.00781 132.359 2.35156C132.672 2.67969 132.828 2.91406 132.828 3.05469C132.828 3.39844 132.391 3.57031 131.516 3.57031H128.586C128.32 4.91406 128.062 5.91406 127.812 6.57031C130.891 8.33594 132.406 10.1094 132.359 11.8906ZM140.938 2.28125C141.016 2.84375 140.477 3.23437 139.32 3.45312V13.9766C139.383 14.3359 139.414 14.6484 139.414 14.9141C139.414 15.4141 139.211 15.7344 138.805 15.875C138.508 15.9688 137.781 16.0156 136.625 16.0156C135.984 16.0156 135.625 15.9922 135.547 15.9453C135.422 15.8203 135.359 15.4141 135.359 14.7266V0.898438C135.672 0.976563 136.039 1.03906 136.461 1.08594C136.883 1.13281 137.367 1.17187 137.914 1.20312C139.008 1.26562 139.719 1.33594 140.047 1.41406C140.625 1.57031 140.922 1.85938 140.938 2.28125ZM135.641 8H131.68L130.906 8.04688L130.625 6.24219H135.617L135.641 8ZM139.227 22.2266H124.273C123.508 22.2266 122.961 22.1094 122.633 21.875C122.242 21.5781 122.047 21.0469 122.047 20.2812V14.8672C122.312 14.9297 122.75 14.9922 123.359 15.0547C123.969 15.1016 124.75 15.1406 125.703 15.1719C126.859 15.25 127.445 15.5156 127.461 15.9688C127.43 16.2812 127.234 16.5156 126.875 16.6719C126.75 16.7031 126.617 16.7422 126.477 16.7891C126.336 16.8359 126.203 16.875 126.078 16.9062V19.1328C126.078 19.6328 126.164 19.9688 126.336 20.1406C126.508 20.3125 126.859 20.3984 127.391 20.3984H135.969C136.125 20.2266 136.281 20.0625 136.438 19.9062C136.594 19.75 136.75 19.5859 136.906 19.4141C137.219 19.1328 137.5 18.9922 137.75 18.9922C137.953 18.9922 138.141 19.0469 138.312 19.1562C139.891 20.3125 140.68 21.1406 140.68 21.6406C140.68 22.0312 140.195 22.2266 139.227 22.2266Z" fill="#1B3148"/>
</svg>
