<?xml version="1.0" encoding="UTF-8"?>
<svg id="Layer_2" data-name="Layer 2" xmlns="http://www.w3.org/2000/svg" viewBox="0 0 124.47 33.99">
  <defs>
    <style>
      .cls-1 {
        fill: #1b3148;
        stroke-width: 0px;
      }
    </style>
  </defs>
  <g id="Layer_1-2" data-name="Layer 1">
    <g>
      <g>
        <path class="cls-1" d="M12.66,20.37c-.03,1.6-.57,2.82-1.61,3.67s-2.61,1.27-4.71,1.27c-.88,0-1.7-.1-2.47-.3-.77-.2-1.44-.5-2.01-.91-.57-.41-1.02-.92-1.36-1.54-.33-.62-.5-1.33-.5-2.15,0-1.8.55-3.15,1.66-4.04,1.1-.89,2.66-1.33,4.66-1.33,2.13,0,3.72.42,4.78,1.26,1.06.84,1.58,2.2,1.56,4.07ZM19.04,30.3c0,1.35-.95,2.33-2.84,2.93-.81.26-1.71.45-2.68.58-.98.13-2.06.19-3.25.17-6.26-.01-9.39-1.24-9.39-3.69,0-1.35,1.03-2.34,3.1-2.95.83-.27,1.76-.49,2.8-.65,1.04-.16,2.2-.23,3.49-.21,2.99.01,5.2.34,6.63.98,1.43.64,2.14,1.59,2.14,2.83ZM8.63,20.37c0-.62-.16-1.11-.49-1.48s-.93-.55-1.82-.55c-.88.01-1.49.18-1.84.49s-.52.83-.5,1.54c.02.67.24,1.14.67,1.4.43.27.99.4,1.67.4s1.22-.13,1.66-.4c.44-.27.65-.73.65-1.4ZM14.92,30.3c0-.79-1.55-1.19-4.65-1.19-.62,0-1.2.02-1.73.07-.53.05-1.04.12-1.54.21-1.11.21-1.67.51-1.67.9,0,.82,1.64,1.23,4.93,1.23,3.1,0,4.65-.41,4.65-1.23ZM16.3,19.2h-6.2v-2.87h6.2v2.87ZM16.3,23.82h-6.2v-2.85h6.2v2.85ZM15.06,14.67h4.03v11.36h-4.03v-11.36Z"/>
        <path class="cls-1" d="M55.04,33.6h-20.93v-3.42h20.93v3.42ZM54.25,22.52l-1.55,3.36c-1.1-.19-2.11-.44-3.03-.74s-1.79-.65-2.6-1.05c-.43-.21-.85-.45-1.26-.75-.41-.29-.87-.62-1.36-.97-.68.48-1.26.86-1.73,1.14s-.77.45-.92.52c-.67.33-1.45.64-2.33.93-.89.29-1.92.56-3.08.79l-1.72-3.26c.95-.14,1.8-.32,2.54-.54.74-.23,1.44-.5,2.11-.81.76-.36,1.37-.72,1.83-1.1.46-.38.8-.82,1.03-1.34h-6.84v-3.34h18.21v3.34h-6.77c-.05.11-.09.18-.13.23-.04.04-.08.14-.11.29.62.74,1.63,1.42,3.03,2.05.76.31,1.53.57,2.29.78.76.21,1.56.36,2.38.47ZM46.77,33.15h-4.6v-7.65h4.6v7.65Z"/>
        <path class="cls-1" d="M80.6,33.11c-.32-.3-.69-.69-1.12-1.18-.43-.49-.87-1.01-1.32-1.56-.45-.55-.89-1.11-1.32-1.67s-.81-1.07-1.14-1.52c-.21.62-.46,1.22-.76,1.8-.3.59-.62,1.15-.97,1.68s-.69,1.04-1.05,1.51c-.36.47-.7.91-1.04,1.3l-3.69-1.8c.98-1.19,1.78-2.44,2.4-3.74.61-1.3,1.08-2.66,1.42-4.05.33-1.39.55-2.83.66-4.32.1-1.48.15-3,.13-4.54h4.29c0,.1,0,.27-.01.53,0,.26-.02.56-.02.89,0,.34-.02.69-.02,1.07,0,.38-.01.74-.01,1.08v.91c0,.27,0,.45.02.56.06.36.23.83.51,1.42.28.6.62,1.25,1.02,1.96.41.71.85,1.44,1.32,2.19s.95,1.46,1.41,2.13.89,1.26,1.29,1.78c.4.52.71.9.95,1.13l-2.93,2.42ZM84.17,14.67h4.31v19.24h-4.31V14.67ZM85.48,22.3h5.1v3.9h-5.1v-3.9Z"/>
        <path class="cls-1" d="M115.31,27.16c-.3-.18-.66-.4-1.08-.67-.42-.27-.85-.55-1.28-.84-.43-.29-.83-.58-1.2-.87-.37-.29-.66-.53-.85-.74-.3.34-.58.64-.85.88s-.55.49-.86.72c-.31.23-.66.48-1.05.73-.39.25-.86.56-1.42.91l-3-2.69c.65-.25,1.28-.58,1.87-1.02.6-.43,1.12-.92,1.58-1.46s.83-1.11,1.12-1.72.44-1.21.45-1.79h-3.55v-3.55h11.8v3.55h-3.58c-.03.19-.07.42-.12.68-.05.26-.11.55-.19.86.7.98,1.45,1.8,2.26,2.45.81.65,1.68,1.25,2.6,1.82l-2.67,2.75ZM105.7,28.14h4.41v2.56h14.06v3.2h-18.47v-5.76ZM123.1,22.93h-6.67v-3.55h6.67v3.55ZM119.55,14.69h4.36v13.99h-4.36v-13.99Z"/>
      </g>
      <g>
        <path class="cls-1" d="M82.73,9.73l-1.79.69-2.98-5.02L80.85.02l1.82.79-2.51,4.53,2.57,4.38ZM85.4,9.75l-1.79.69-2.98-5.02L83.51.04l1.82.81-2.51,4.51,2.57,4.4Z"/>
        <path class="cls-1" d="M94.33,5.85c-.19-.07-.42-.19-.69-.34-.27-.15-.54-.31-.81-.49-.27-.18-.53-.36-.77-.55-.24-.19-.42-.35-.55-.5-.15.16-.28.32-.39.46-.11.15-.23.3-.36.45-.12.16-.27.33-.45.51-.17.18-.4.4-.68.64l-1.91-1.04c.44-.37.81-.77,1.12-1.18.3-.41.55-.83.75-1.24.19-.41.34-.81.44-1.2.09-.39.16-.74.18-1.06h2.59c-.02.13-.06.31-.13.55-.07.24-.12.51-.16.79.1.2.3.44.59.7.29.27.61.53.96.79.35.26.69.49,1.03.7.34.21.61.35.81.44l-1.56,1.55ZM89.22,6.54h9.94v4.06h-9.94v-4.06ZM91.44,8.06v.98h5.6v-.98h-5.6ZM96.97.11h2.2v5.97h-2.2V.11ZM100.32,2.24v1.93h-3v-1.93h3Z"/>
        <path class="cls-1" d="M113.97,6.92h-11.44v-1.53h11.44v1.53ZM113.37,9.05c0,.6-.53,1.04-1.58,1.31-.44.11-.94.2-1.5.26-.55.06-1.18.09-1.88.08-3.53-.01-5.29-.56-5.29-1.64,0-.37.15-.66.45-.87s.69-.38,1.18-.5c.49-.12,1.05-.19,1.69-.23.64-.04,1.29-.06,1.97-.07,1.7-.02,2.95.12,3.76.4s1.21.7,1.21,1.26ZM109.47.02v.46h3.68v1.39h-9.9V.48h3.83V.02h2.39ZM107.2,4.86c-.24,0-.51-.01-.79-.01s-.57,0-.86-.02c-.29-.01-.57-.04-.84-.09-.27-.04-.51-.12-.71-.22s-.38-.23-.5-.4c-.13-.17-.19-.38-.19-.64,0-.35.14-.62.42-.8.28-.18.65-.31,1.11-.39.45-.08.97-.12,1.53-.12.57,0,1.13,0,1.7,0,.4,0,.8,0,1.21,0,.41,0,.8,0,1.18.02.38.01.74.04,1.07.09.33.04.62.11.87.2.25.09.44.21.58.36s.2.34.19.56c.02.28-.03.52-.14.7-.11.18-.26.33-.45.44-.19.11-.41.19-.67.24s-.52.09-.79.1c-.27.02-.54.02-.81.02-.27,0-.52,0-.74,0h-2.37ZM111.14,3.43c0-.15-.16-.24-.47-.27-.15-.02-.43-.03-.84-.03-.41,0-.99-.01-1.72-.01-.66,0-1.16,0-1.5,0-.34,0-.56,0-.64.02-.31.03-.47.13-.47.31s.16.29.47.32c.06,0,.26.01.6.01h1.56c.79,0,1.38,0,1.78,0s.65,0,.74-.02c.33-.04.49-.16.49-.34ZM111.08,9.05c0-.35-.89-.53-2.68-.53-.1,0-.23,0-.4,0-.17,0-.36.01-.57.03-.2.02-.41.03-.63.06-.22.02-.41.05-.58.09s-.31.09-.42.15c-.11.06-.16.13-.16.2,0,.37.92.55,2.77.55s2.68-.18,2.68-.55Z"/>
        <path class="cls-1" d="M121.81,5.03l-3.08,5.39-1.65-.82,2.53-4.52-2.5-4.39,1.78-.68,2.91,5.02ZM124.47,5.05l-2.88,5.38-1.86-.81,2.55-4.52-2.52-4.4,1.82-.72,2.9,5.05Z"/>
      </g>
      <g>
        <path class="cls-1" d="M6.45,10.11c-.8.15-1.51.24-2.13.27-.5.02-1.88.03-4.15.03V.32h5.96v1.86h-3.78v6.2c1.14,0,1.8,0,1.96,0,.51-.02,1.09-.1,1.73-.23l.4,1.97ZM7.76.11h2.35v10.49h-2.35V.11ZM8.48,4.27h2.78v2.12h-2.78v-2.12Z"/>
        <path class="cls-1" d="M24.9,5.79h-11.42v-1.92h11.42v1.92ZM24.08,6.92v3.69h-2.31v-1.85h-7.63v-1.84h9.94ZM21.11,5.03c.16-.34.27-.73.36-1.19.08-.46.15-.97.2-1.53h-7.49V.34h9.94c0,.6-.02,1.1-.03,1.5,0,.4-.03.75-.06,1.07-.04.32-.09.64-.16.96-.07.32-.18.71-.32,1.16h-2.44ZM17.88,4.18h2.42v3h-2.42v-3Z"/>
        <path class="cls-1" d="M34.58,5.39c0,1.74-.14,2.91-.43,3.51-.22.49-.56.85-1.01,1.08s-1.05.34-1.81.34c-.55,0-.99-.05-1.35-.16-.35-.1-.66-.27-.92-.49-.43-.4-.72-.98-.87-1.77-.08-.47-.12-1.31-.12-2.52,0-1.84.15-3.01.44-3.51.23-.48.56-.84,1.01-1.08.45-.23,1.05-.35,1.8-.35.57,0,1.04.05,1.4.16s.67.27.94.5c.44.38.72.97.83,1.77.05.38.08,1.22.08,2.52ZM32.36,5.32c0-1.3-.03-2-.09-2.11-.07-.28-.17-.49-.31-.63-.13-.14-.34-.21-.63-.21-.24,0-.42.04-.54.12-.12.08-.22.2-.3.37-.13.25-.2.69-.2,1.31v.56c0,.13.01.24.01.34v.26c0,1.21.03,1.93.08,2.15.06.3.16.52.29.67.13.15.35.22.66.22s.52-.07.66-.22c.13-.15.24-.37.3-.67.02-.1.03-.33.05-.68s.02-.84.02-1.47ZM37.89,5.84h-4.31v-1.88h4.31v1.88ZM35.97.11h2.35v10.49h-2.35V.11Z"/>
        <path class="cls-1" d="M47.73,10.16c-.17-.16-.38-.38-.61-.64-.23-.26-.47-.55-.72-.85-.25-.3-.49-.61-.72-.91-.23-.31-.44-.58-.62-.83-.11.34-.25.66-.42.98-.17.32-.34.63-.53.92-.19.29-.38.56-.57.82-.2.26-.38.49-.57.71l-2.01-.98c.54-.65.97-1.33,1.31-2.04.33-.71.59-1.45.77-2.21.18-.76.3-1.54.36-2.35.06-.81.08-1.63.07-2.48h2.34c0,.05,0,.15,0,.29,0,.14,0,.3-.01.49,0,.18,0,.38-.01.58,0,.21,0,.4,0,.59v.5c0,.15,0,.25.01.31.03.19.13.45.28.78.15.32.34.68.56,1.07.22.39.46.79.72,1.2s.52.8.77,1.16.49.69.7.97c.22.28.39.49.52.62l-1.6,1.32ZM49.68.11h2.35v10.49h-2.35V.11ZM50.4,4.27h2.78v2.12h-2.78v-2.12Z"/>
        <path class="cls-1" d="M61.59,6.92c-.16-.1-.36-.22-.59-.36-.23-.15-.46-.3-.7-.46-.23-.16-.45-.32-.66-.48-.2-.16-.36-.29-.46-.4-.17.19-.32.35-.46.48-.14.13-.3.26-.47.39s-.36.26-.57.4c-.21.14-.47.3-.77.5l-1.64-1.46c.36-.13.7-.32,1.02-.55.32-.23.61-.5.86-.79.25-.29.45-.61.61-.94.16-.33.24-.66.25-.98h-1.94V.32h6.43v1.93h-1.95c-.02.1-.04.23-.06.37-.03.14-.06.3-.1.47.38.54.79.98,1.23,1.34.44.35.91.68,1.42.99l-1.46,1.5ZM56.35,7.46h2.4v1.4h7.67v1.74h-10.07v-3.14ZM65.84,4.62h-3.64v-1.93h3.64v1.93ZM63.9.12h2.38v7.63h-2.38V.12Z"/>
      </g>
    </g>
  </g>
</svg>