<?xml version="1.0" encoding="UTF-8"?>
<svg id="Layer_2" data-name="Layer 2" xmlns="http://www.w3.org/2000/svg" version="1.1" viewBox="0 0 344.4 62.4">
  <defs>
    <style>
      .cls-1 {
        fill: #1b3148;
        stroke-width: 0px;
      }
    </style>
  </defs>
  <g id="Layer_1-2" data-name="Layer 1-2">
    <g>
      <path class="cls-1" d="M234.5,24.8c-.5,3-2,5.6-4.5,8-2.6,2.5-5.5,3.9-8.9,4.3-9.5-1.6-14.6-6.6-15.1-15,.6-1.7,1.9-3.3,3.9-4.8,1.9-1.2,3.9-2.5,5.7-3.8,1.1-1.7,1.7-3.1,1.8-4.4,1.8,0,3.6.4,5.1,1,1.6.6,2.5,1.4,2.9,2.2.6.6.7,1.2.4,1.8.9.2,2.2.7,3.7,1.4.8-.6,1.5-1.2,2.3-1.9.8-.7,1.6-1.5,2.3-2.5-.8,2.5-1.6,4.3-2.4,5.6,1.8,3.1,2.7,5.8,2.8,8.1h0ZM222.4,22.6c-.9,0-1.4-.3-1.8-.7s-.7-.9-1-1.5c-.4-.3-1-1-1.7-2.1-2.8.5-4.6,1-5.4,1.5s-1.3,1.5-1.6,2.9c.3,1.8,1.4,3.1,3.3,3.9.9.4,2.8,1,5.8,1.6,1.7-1,2.6-2.9,2.5-5.7h0ZM268,26.8c0,1.1-.6,2-1.8,2.6-.3.1-1.4.5-3.5,1.1-2.3.6-5.3,1.4-9.1,2.6,2.5-1.4,4.2-3,5.2-4.6-1,0-3.2-.3-6.6-.6v3.9c-.5.6-1.6,1.1-3.5,1.6-1.8.5-3.6.7-5.2.7s-3-.3-3.5-.9c-1.1.2-3.1,1.1-5.9,2.8-2.2,1.4-4,2.7-5.4,3.8,4.5-1,9.5-2.8,15.1-5.5.7,0,1.9,0,3.7.3,1.8.3,3.1.6,4,.9,1.3,1.1,1.9,2.4,1.9,4s-.1,1.6-.4,2.7c-.1.5-.1,1.7-.1,3.6s0,3,0,5.1,0,3.4,0,3.6c-1,1.4-2.9,2.5-5.4,3.4-3.2,1.1-8,2.1-14.6,3,2.7-1.2,4.6-2.3,5.5-3.1.6-.5,1.2-1.3,1.9-2.5.4-2.4.6-5.1.6-8.3s-.2-4.8-.5-6.8c-1.5.4-3.4,1.2-5.9,2.3-3,1.5-5.2,2.8-6.6,4.1-2.4-.1-3.9-1-4.2-2.5,0-.3.2-.9.8-1.6.7-.9,1.1-1.4,1.1-1.6.6-1,2.7-2.7,6.2-5.1,2.5-1.6,5-3.3,7.6-4.9,0-1.4,0-4,.3-7.8s.3-6.5.3-8,0-2.3-.1-3c-.3-1.6-.6-2.7-.9-3.2-.4-.6-1.5-1.6-3.3-2.9.3-1.3,1-2.3,2.1-2.9,1.1-.6,1.6-1.2,1.6-1.8,1.4-.3,3.3-.7,5.7-1.4,2,.3,3.9,1,5.8,2.2,1,1.2,2.3,3.4,4,6.5-.7.8-1.3,1.6-1.9,2.3-.6,1-1,2.8-1.1,5.3v1.5c2.6-1.3,4.2-2.3,4.8-3.1-.2-1.9-.5-3.2-1.1-4.1,2.8.6,4.7,1.2,5.7,1.6,1.9.8,2.9,1.8,3.1,3-.9,1.3-2.7,2.7-5.2,4.1-1.5.9-3.9,1.8-7.2,2.6v2.7c1.2.1,3-.1,5.5-.8,2.6-.8,4.3-1.2,5-1.2,3.7,1,5.5,2.4,5.5,4.1h0ZM227.3,26.4c.4-.8.6-1.6.6-2.5s-.3-1.9-.8-2.6c-.2-.6-.6-.8-1-.8s-.2,0-.2.3c.4.4.9,1.2,1.3,2.6l-.8.3c-.2-.9-.5-1.4-.8-1.4-.1,0-.1,0-.1.1.4.6.5,1.2.5,1.7,0,.4-.4,1.4-1.2,3.2-.6.7-.7,1-.4,1s.2,0,.2-.1c.9-1.3,1.4-2.7,1.8-4.1l.9-.2c-.2.6-.4,1.2-.6,1.9-.3.6-.2,1,.3,1s.3,0,.4-.2h0ZM244.3,26.2c0-1.3,0-3.2,0-5.7s0-2.1,0-4.5c-.1-2.1-.1-3.6,0-4.6-.7.4-.8,3.2-.5,8.3l-.6-.3c0-.8-.1-1.6-.2-2.5-.1-.9-.3-1.4-.6-1.7-.1,1.7,0,4,0,6.9.1,3.4.4,5.3.8,5.9.1-1.5,0-3.5-.2-5.9.2-.3.4-.5.6-.5s.1,0,.1.2c0,.9.3,2.3.9,4.4h0ZM249.9,45.7c0,.7-.1,1.8-.3,3.4-.2,1.6-.3,2.6-.3,3,.3,0,.6-.5.9-1.3s.4-1.7.4-2.6-.3-2.1-.8-2.6Z"/>
      <g>
        <path class="cls-1" d="M303.9,49.4c0,2.1-1,3.9-3.1,5.3-1.9,1.4-4.2,2-6.7,2-4.2,0-7-1.6-8.4-4.8-.2-.6-.4-1.5-.4-2.6s0-2.2-.1-2.6c.7.5,1.2,1.1,1.6,1.9.6,1.4.9,2.1.9,2.1.5.8,1.4,1.6,2.5,2.2,1,.6,2.1.8,3.3.8,1.7,0,3.1-.5,4.2-1.5s1.6-2.2,1.6-3.7-.4-2.1-1.2-2.8c-.9-.8-1.9-1.2-3.2-1.2s-.5,0-.9.2c-.4,0-.7.2-.9.2-.6,0-1.3-.4-2-1.2-.7-.7-1-1.4-1-1.9s.2-.5.5-.5c-.3,0,0,0,.9,0,1.9,0,3.5-.4,4.6-1.3,1.2-.9,1.8-2.1,1.8-3.8s-.2-1.6-.8-2.2c-.6-.7-1.4-1-2.4-1s-1.6.3-2.1,1-1,1.2-1.4,1.9c-.6.7-1.4,1-2.5,1s-.7,0-1.3-.2c-.6,0-1.1-.1-1.4-.1.3-.7.9-1.7,1.7-3,.9-1.1,1.8-1.9,2.8-2.4,1-.5,2.3-.8,3.8-.8,2.4,0,4.3.5,5.8,1.6,1.6,1.1,2.4,2.7,2.4,4.6s-.5,2.4-1.5,3.4c-1,1-2.3,1.7-3.7,2.1,4.4,1.1,6.6,3.5,6.6,7.2h0Z"/>
        <path class="cls-1" d="M314.8,53.9c0,.8-.3,1.4-.9,1.9-.6.5-1.3.7-2.2.7s-1.6-.2-2.2-.8-.9-1.1-.9-1.8.3-1.3.9-1.9c.6-.5,1.3-.8,2.2-.8s1.6.2,2.2.8.9,1.1.9,1.9h0Z"/>
        <path class="cls-1" d="M344.4,43.6c0,3.4-.6,6.2-1.7,8.4-1.6,3-4.1,4.5-7.7,4.5s-6-1.5-7.5-4.6c-1.1-2.2-1.6-5-1.6-8.4s.6-6.1,1.7-8.2c1.5-3,4-4.5,7.5-4.5s6.1,1.5,7.7,4.4c1.2,2.2,1.7,4.9,1.7,8.3h0ZM339.3,43.6c0-6.7-1.4-10.1-4.3-10.1s-4.2,3.4-4.2,10.1,1.4,10.5,4.2,10.5,3.2-1.4,3.9-4.3c.3-1.4.4-3.5.4-6.2Z"/>
      </g>
      <g>
        <path class="cls-1" d="M0,30.9v-3.1h12.2v3.1s-12.2,0-12.2,0ZM7.2,28.3c0-.5.2-1.1.3-1.9s.2-1.8.3-2.7c0-1,.1-2,.2-3.1s0-2,0-2.9H.8v-3.1h10.8c0,1.2,0,2.2,0,3.1s0,1.7,0,2.4c0,.7,0,1.4,0,2s0,1.2-.1,1.9-.1,1.3-.2,2c0,.7-.2,1.5-.3,2.4h-3.5c0,0,0,0,0,0ZM2.4,29.6v-10.4h3.5v10.4s-3.5,0-3.5,0ZM13.2,14h3.7v17.4h-3.7V14ZM14.9,24.3v-3.6h3.7v3.6h-3.7Z"/>
        <path class="cls-1" d="M29.5,14v.9h3.3v2.8h-11.2v-2.8h3.7v-.8h4.2,0ZM32.5,21.3c0,.9-.6,1.6-1.5,2.1-.9.5-2.2.7-3.8.8-1,0-1.8,0-2.5-.2s-1.3-.3-1.8-.6-.8-.6-1-1c-.2-.4-.3-.8-.3-1.3,0-.9.5-1.6,1.4-2.1s2.3-.7,4.3-.7c1.7,0,3,.2,3.9.7.9.5,1.4,1.2,1.4,2.3h0ZM34.4,28.4h-12.4v-2.8h15.9v5.7h-3.5v-2.9h0ZM29.2,21.3c0-.2,0-.3-.2-.5-.1-.1-.3-.2-.4-.3-.2,0-.4-.1-.6-.1-.2,0-.5,0-.7,0s-.5,0-.7,0c-.2,0-.5,0-.7.1-.2,0-.4.1-.5.2-.1.1-.2.2-.2.4s0,.3.2.4c.1.1.3.2.5.3.2,0,.4.1.7.1.2,0,.5,0,.7,0s.5,0,.7,0c.2,0,.4,0,.6-.1.2,0,.3-.1.5-.2.1-.1.2-.2.2-.4h0ZM34.4,14h3.5v10.8h-3.5v-10.8ZM39.7,21.3h-4.5v-3.2h4.5v3.2Z"/>
        <path class="cls-1" d="M53,14.7c0,3.2-.2,5.8-.8,7.7-.6,1.8-1.4,3.5-2.6,4.9-1.2,1.4-2.6,2.6-4.4,3.5l-2.7-2.3c.6-.2,1.1-.5,1.6-.9s1-.8,1.5-1.2.9-.9,1.2-1.4.7-1,1-1.5c.9-1.7,1.4-3.4,1.4-5s0-.2,0-.4c0-.1,0-.2,0-.3h-6v-3h9.8,0ZM55.7,14h3.7v17.2h-3.7V14Z"/>
        <path class="cls-1" d="M81.3,23.1h-18.1v-2.7h18.1v2.7ZM79.8,19.7c-.6,0-1.2-.1-1.9-.3s-1.4-.3-2.1-.5-1.4-.4-2-.6c-.6-.2-1.1-.5-1.5-.7-.4.2-.9.5-1.4.7-.5.2-1,.4-1.6.5-.6.2-1.2.3-1.9.5-.7.1-1.5.3-2.4.4l-1.4-2.6c.6,0,1.2-.1,1.9-.3s1.4-.3,2-.6,1.2-.5,1.8-.9c.5-.3.9-.7,1.1-1.2h4.2c0,.1-.1.3-.2.5,0,.2-.2.3-.2.4.7.4,1.5.8,2.6,1.1,1.1.3,2.5.6,4.2.7l-1,2.7h0ZM64.2,31.3v-4.4h12.1v-.5h-12.3v-2.3h15.9v4.5h-12.1v.6h12.3v2.1s-15.9,0-15.9,0ZM74.1,25h-3.8v-3.9h3.8v3.9Z"/>
      </g>
      <path class="cls-1" d="M185,16.1c0,1.2-.3,2.8-.9,4.6-.7,2.1-1.1,4.1-1.3,6-.6,5.6-.7,15.6-.3,30.2,0,1.2-.8,2.4-2.5,3.5-1.4.9-2.6,1.5-3.7,1.6-2.1.3-3.7.4-4.9.2.2-.5.4-1,.4-1.8,0-1.2,0-1.9.1-2.3.1-4,.2-10.3.2-18.8,0-9.4-.1-15.1-.4-17.3,0-.9,0-1.8-.1-2.7,0-.9-.3-1.8-.7-2.6-.4-.8-1.2-1.3-2.5-1.4.2-.8.9-2,2.1-3.5.9-1.3,1.4-2.4,1.4-3.3.4,0,.8-.1,1.1-.1.6,0,1.2.1,2,.4s1.3.4,1.5.4.4,0,.5-.1c.4,0,1.1.4,2.2,1.2s1.9,1.2,2.5,1.3c.4.8.8,1.7,1.2,2.5s1.1,1.5,2,2h0ZM178.3,27.3c-.1,0-.4.9-.6,2.5-.3,1.8-.4,3.7-.5,5.4-.6,1.1-1,1.9-1,2.4,0,1.1.4,2,1,2.7,0,4.2.2,7,.7,8.3.2-4.4.3-8.1.3-11,0-2.9,0-6.3.1-10.3h0ZM180.2,30.1c-.3.2-.7.6-1.1,1.3.2.4.3.8.3,1.1-.1,1-.2,1.6-.3,2-.1.3-.3.6-.5.9-.2.4-.3.9-.2,1.3,0,.7.3,1.4,1,2.3,0,2.2.2,3.4.7,3.5l.2-12.5h0Z"/>
      <path class="cls-1" d="M163.8,25.1c0-.4-.3-.8-1-1.1-.7-.3-1.3-.4-2-.3-.4-.7-1.2-1.1-2.3-1.1s-.9,0-1.3.2c-.8.6-1.2,1.3-1.2,2-.6,1.4-1.2,2.5-1.7,3.3.6-.4,1.2-.5,1.6-.5.7,0,1.2.6,1.3,1.9,0,.4,0,1.9,0,4.5-2.4-.7-3.8-1.1-4.1-1.2-1,.3-1.8.5-2.3.7-.3-1.4-.6-2.7-.9-3.8-.9-1.6-2.6-2.8-5.2-3.3-.3,2.1-.6,3.7-.8,4.8-.4.7-.7,2.4-1.1,5.1-.2,1.7-.4,3.3-.6,4.9,0,1.9.4,4.1,1.2,6.7,1,3,2.2,4.6,3.5,4.8.6,0,1.4-.2,2.2-.9.8-.7,1.4-1.5,1.6-2.6,0-7.3,0-11.3.2-11.8,1.3.8,2.2,1.4,2.6,1.7,0,.3,0,.7.2,1.2s.1.9.1,1.2c-1,2-1.6,3.3-2,4,.6,1.5,1.6,2.5,2.9,2.7,1.4-.6,2.3-1.4,2.6-2.5.4.4.9.7,1.3,1.1.4.4,1,.6,1.8.7.8-.2,1.4-.8,2-1.7.2-.5.5-1.1.8-1.6l.3-12.2c.3-1.6.4-3.1.4-4.3s-.1-2.1-.4-2.6h0ZM145.1,48.7c-.3-1-.6-1.8-.7-2.5-.1-.4-.1-.6,0-.8,0-.1.2-.2.4-.1.3.8.7,2.4,1.3,4.8-.2.2-.6-.4-1-1.5h0ZM157.1,41c-.5,1.5-1.6,2.4-3.1,2.8.3-1,.4-1.8.4-2.2.5-.8.8-1.3,1-1.8.8-.5,1.4-1.1,1.8-1.7,0,.1,0,.6,0,1.3,0,.5,0,1-.2,1.5h0Z"/>
      <g>
        <path class="cls-1" d="M49.7,46.1h-18.1v-2.8h18.1v2.8ZM48.7,49.8c0,1.1-.8,2-2.5,2.5-1.5.4-3.3.6-5.4.6-5.7,0-8.5-1.1-8.5-3.1s.2-1.2.7-1.7,1.1-.7,1.9-.9c.8-.2,1.7-.4,2.7-.4s2.1-.1,3.2-.1c2.7,0,4.7.2,6,.8s1.9,1.3,1.9,2.4ZM48.6,39.1c0,.8-.3,1.3-.8,1.8s-1.2.8-2,1-1.7.3-2.6.4c-.9,0-1.8,0-2.7,0s-1.2,0-1.8,0c-.6,0-1.2,0-1.8-.1-.6,0-1.2-.2-1.7-.3s-1-.3-1.4-.6-.7-.5-1-.9c-.2-.3-.3-.8-.3-1.3,0-.5,0-.9.3-1.3s.5-.7.9-.9.9-.4,1.4-.6c.5-.2,1.1-.3,1.7-.3.6,0,1.2-.1,1.8-.2s1.2,0,1.8,0,1.1,0,1.7,0c.6,0,1.2,0,1.8.2.6,0,1.2.2,1.8.3s1,.3,1.5.6c.4.2.8.5,1,.9.2.3.4.8.4,1.3h0ZM38.9,44.9h-3.3v-4.3h3.3v4.3ZM45.1,39.1c0-.2-.2-.3-.5-.5-.3-.1-.8-.2-1.2-.2-.5,0-1,0-1.5,0h-1.2c-.6,0-1.2,0-1.7,0s-1,0-1.4,0-.7.1-1,.2-.4.3-.4.5,0,.3.2.4c.2,0,.4.2.6.2s.6,0,.9.1c.3,0,.7,0,1,0,.3,0,.6,0,.9,0h2c.5,0,1,0,1.5,0s.9-.1,1.2-.2c.3,0,.5-.3.5-.5h0ZM45,49.8c0-.7-1.4-1-4.3-1h-.7c-.3,0-.6,0-.9,0-.3,0-.7,0-1,0s-.7,0-.9.2c-.3,0-.5.2-.7.3s-.3.2-.3.4c0,.7,1.5,1,4.4,1s4.3-.3,4.3-1h0ZM45.9,44.9h-3.3v-4.3h3.3v4.3Z"/>
        <path class="cls-1" d="M63.9,44.2c0,2.8-.2,4.8-.7,5.8-.4.8-.9,1.4-1.6,1.8-.7.4-1.7.6-2.9.6s-1.6,0-2.1-.3c-.5-.2-1-.4-1.5-.8-.7-.7-1.1-1.6-1.4-2.9-.1-.8-.2-2.2-.2-4.1,0-3,.2-4.9.7-5.8.4-.8.9-1.4,1.6-1.8.7-.4,1.7-.6,2.8-.6s1.6,0,2.2.3,1.1.5,1.5.8c.7.6,1.1,1.6,1.3,2.9,0,.6.1,2,.1,4.1h0ZM60.4,44.1c0-2.1,0-3.3-.1-3.5-.1-.5-.3-.8-.5-1s-.5-.3-1-.3-.7,0-.8.2c-.2.1-.3.3-.5.6-.2.4-.3,1.1-.3,2.2v.9c0,.2,0,.4,0,.5v.4c0,2,0,3.2.1,3.5,0,.5.2.9.5,1.1.2.2.6.4,1,.4s.8-.1,1-.4c.2-.2.4-.6.5-1.1,0-.2,0-.5,0-1.1s0-1.4,0-2.4h0ZM69.1,44.9h-6.8v-3.1h6.8s0,3.1,0,3.1ZM66.1,35.6h3.7v17.2h-3.7v-17.2Z"/>
        <path class="cls-1" d="M83.6,52c-.3-.3-.6-.6-1-1s-.8-.9-1.1-1.4c-.4-.5-.8-1-1.1-1.5s-.7-1-1-1.4c-.2.5-.4,1.1-.7,1.6-.3.5-.5,1-.8,1.5-.3.5-.6.9-.9,1.3s-.6.8-.9,1.2l-3.2-1.6c.8-1.1,1.5-2.2,2.1-3.3.5-1.2.9-2.4,1.2-3.6s.5-2.5.6-3.9c0-1.3.1-2.7.1-4.1h3.7c0,0,0,.2,0,.5s0,.5,0,.8,0,.6,0,1c0,.3,0,.7,0,1v.8c0,.2,0,.4,0,.5,0,.3.2.7.4,1.3.2.5.5,1.1.9,1.8s.7,1.3,1.1,2c.4.7.8,1.3,1.2,1.9s.8,1.1,1.1,1.6c.3.5.6.8.8,1l-2.5,2.2h0ZM86.7,35.6h3.7v17.2h-3.7v-17.2ZM87.8,42.4h4.4v3.5h-4.4v-3.5Z"/>
        <path class="cls-1" d="M104.5,46.7c-.3-.2-.6-.4-.9-.6s-.7-.5-1.1-.8-.7-.5-1-.8-.6-.5-.7-.7c-.3.3-.5.6-.7.8s-.5.4-.7.6-.6.4-.9.7c-.3.2-.7.5-1.2.8l-2.6-2.4c.6-.2,1.1-.5,1.6-.9.5-.4,1-.8,1.4-1.3s.7-1,1-1.5.4-1.1.4-1.6h-3.1v-3.2h10.2v3.2h-3.1c0,.2,0,.4,0,.6s0,.5-.2.8c.6.9,1.2,1.6,1.9,2.2s1.4,1.1,2.2,1.6l-2.3,2.5h0ZM96.2,47.6h3.8v2.3h12.1v2.9h-15.9s0-5.2,0-5.2ZM111.2,42.9h-5.8v-3.2h5.8v3.2ZM108.1,35.6h3.8v12.5h-3.8v-12.5Z"/>
      </g>
    </g>
  </g>
</svg>