<?xml version="1.0" encoding="UTF-8"?>
<svg id="Layer_2" data-name="Layer 2" xmlns="http://www.w3.org/2000/svg" viewBox="0 0 793.11 321.39">
  <defs>
    <style>
      .cls-1 {
        fill: #1b3148;
        stroke-width: 0px;
      }
    </style>
  </defs>
  <g id="Layer_1-2" data-name="Layer 1">
    <g>
      <path class="cls-1" d="M325.16,157.43c0,4.3-1.02,9.74-3.04,16.33-2.28,7.53-3.74,14.58-4.38,21.16-2.03,19.62-2.41,55.02-1.14,106.21.12,4.17-2.66,8.33-8.37,12.5-4.57,3.23-8.63,5.11-12.18,5.64-6.85,1.21-12.25,1.41-16.18.61.76-1.61,1.2-3.7,1.33-6.25.12-4.03.25-6.72.38-8.06.51-14.24.7-36.28.57-66.11,0-33.05-.45-53.34-1.33-60.87-.13-3.22-.29-6.42-.48-9.57-.19-3.16-.92-6.18-2.19-9.07-1.27-2.89-4-4.53-8.18-4.94.76-2.95,3.05-7.05,6.85-12.29,3.17-4.43,4.76-8.33,4.76-11.69,1.27-.27,2.54-.4,3.81-.4,1.9,0,4.15.44,6.76,1.31,2.6.87,4.28,1.31,5.04,1.31.63,0,1.2-.13,1.71-.4,1.27.14,3.74,1.55,7.42,4.23,3.68,2.69,6.41,4.23,8.18,4.64,1.39,2.96,2.76,5.85,4.09,8.67s3.52,5.17,6.57,7.05ZM302.89,196.93c-.51.27-1.21,3.16-2.09,8.67-.89,6.45-1.46,12.83-1.71,19.15-2.16,3.76-3.24,6.58-3.24,8.47.12,3.9,1.2,7.05,3.24,9.47,0,14.92.76,24.66,2.28,29.22.76-15.58,1.11-28.45,1.05-38.6-.07-10.14.1-22.27.48-36.38ZM309.37,206.81c-1.14.81-2.35,2.29-3.62,4.43.76,1.48,1.08,2.82.95,4.03-.51,3.5-.83,5.78-.95,6.85-.51,1.08-1.08,2.15-1.71,3.22-.64,1.48-.89,3.02-.76,4.64-.13,2.29.95,5.04,3.24,8.26-.13,7.66.63,11.83,2.28,12.49l.57-43.94Z"/>
      <path class="cls-1" d="M492.36,188.4c-1.92,10.98-7.41,20.77-16.47,29.37-9.59,9.23-20.48,14.56-32.68,16-35.21-6.05-53.77-24.51-55.69-55.39,2.09-6.36,6.88-12.26,14.38-17.67,7.14-4.61,14.2-9.23,21.18-13.85,4.18-6.21,6.36-11.62,6.54-16.24,6.8.16,13.11,1.4,18.95,3.7,5.84,2.31,9.37,4.98,10.59,8,2.09,2.23,2.52,4.46,1.31,6.69,3.48.8,8.01,2.55,13.59,5.25,2.79-2.23,5.66-4.57,8.63-7.04,2.96-2.47,5.75-5.53,8.37-9.19-2.79,9.07-5.75,15.92-8.89,20.53,6.62,11.3,10.02,21.25,10.2,29.84ZM447.65,180.28c-3.14-.16-5.36-1.07-6.67-2.75s-2.57-3.46-3.79-5.37c-1.57-1.27-3.66-3.82-6.27-7.64-10.46,1.75-17.17,3.58-20.13,5.49-2.97,1.91-4.88,5.49-5.75,10.74,1.05,6.53,5.05,11.38,12.03,14.56,3.31,1.59,10.46,3.58,21.44,5.97,6.45-3.66,9.5-10.66,9.15-21.01ZM616.28,195.8c0,4.14-2.18,7.32-6.54,9.55-1.05.48-5.32,1.83-12.81,4.06-8.37,2.07-19.61,5.25-33.73,9.55,9.24-5.25,15.6-10.9,19.08-16.95-3.66-.32-11.85-1.11-24.57-2.39v14.33c-1.74,2.23-6.01,4.22-12.81,5.97-6.8,1.75-13.25,2.63-19.35,2.63-6.8,0-11.16-1.11-13.07-3.34-4.18.64-11.42,4.14-21.7,10.51-8.02,5.1-14.73,9.79-20.13,14.09,16.56-3.66,35.2-10.42,55.95-20.29,2.61-.32,7.14.04,13.59,1.07,6.45,1.04,11.41,2.11,14.9,3.22,4.71,3.98,7.06,8.92,7.06,14.8,0,2.71-.52,6.05-1.57,10.03-.35,1.91-.52,6.29-.52,13.13,0,4.62.09,10.9.26,18.86.17,7.96.26,12.42.26,13.37-3.84,5.1-10.55,9.23-20.13,12.42-11.68,4.14-29.63,7.8-53.86,10.98,10.11-4.62,16.9-8.44,20.39-11.46,2.09-1.75,4.44-4.78,7.06-9.07,1.57-8.75,2.35-18.94,2.35-30.56,0-9.39-.61-17.83-1.83-25.31-5.4,1.43-12.72,4.3-21.96,8.6-11.16,5.41-19.35,10.51-24.57,15.28-9.06-.48-14.21-3.5-15.42-9.07-.18-1.27.78-3.26,2.88-5.97,2.61-3.34,4.01-5.33,4.18-5.97,2.26-3.66,9.84-9.95,22.74-18.86,9.24-6.05,18.56-12.09,27.97-18.15,0-5.09.35-14.72,1.05-28.89.69-14.17,1.05-24.03,1.05-29.61,0-4.93-.18-8.6-.52-10.98-1.05-6.05-2.09-9.95-3.14-11.7-1.57-2.39-5.58-5.97-12.03-10.74,1.05-4.78,3.57-8.36,7.58-10.74,4.01-2.39,6.01-4.54,6.01-6.45,5.23-.96,12.2-2.63,20.91-5.01,7.32.95,14.46,3.66,21.44,8.12,3.66,4.62,8.63,12.65,14.9,24.11-2.44,2.87-4.8,5.73-7.06,8.6-2.27,3.66-3.57,10.19-3.92,19.58v5.73c9.76-4.77,15.69-8.6,17.78-11.46-.7-7-2.01-12.02-3.92-15.04,10.46,2.39,17.52,4.38,21.18,5.97,6.97,2.87,10.8,6.53,11.5,10.98-3.49,4.94-9.85,9.95-19.08,15.04-5.58,3.19-14.47,6.45-26.67,9.79v10.03c4.53.48,11.24-.56,20.13-3.1,9.76-3.02,15.86-4.54,18.3-4.54,13.59,3.82,20.39,8.92,20.39,15.28ZM465.69,194.37c1.57-2.87,2.35-5.97,2.35-9.31,0-3.82-.96-7.08-2.88-9.79-.87-2.07-2.09-3.1-3.66-3.1-.52,0-.78.32-.78.95,1.57,1.28,3.14,4.54,4.71,9.79l-2.88.96c-.87-3.34-1.83-5.01-2.88-5.01-.35.16-.52.32-.52.48,1.39,2.39,2,4.46,1.83,6.21-.18,1.28-1.66,5.17-4.44,11.7-2.09,2.55-2.53,3.82-1.31,3.82.35,0,.61-.16.78-.48,3.14-4.78,5.31-9.87,6.54-15.28l3.14-.72c-.7,2.23-1.48,4.54-2.35,6.92-1.05,2.39-.7,3.58,1.05,3.58.52,0,.96-.24,1.31-.72ZM528.7,193.65c-.18-4.77-.26-11.78-.26-21.01,0-2.39-.09-7.88-.26-16.47-.35-7.64-.44-13.37-.26-17.19-2.44,1.59-3.05,11.86-1.83,30.8l-2.35-1.19c-.18-2.87-.44-5.89-.78-9.07-.35-3.18-1.14-5.25-2.35-6.21-.35,6.37-.26,14.8.26,25.31.52,12.42,1.48,19.66,2.88,21.73.52-5.57.26-12.81-.78-21.73.87-1.27,1.57-1.91,2.09-1.91.35,0,.52.24.52.72,0,3.19,1.05,8.6,3.14,16.24ZM549.35,265.52c0,2.55-.35,6.77-1.05,12.65-.7,5.89-1.05,9.63-1.05,11.22,1.22-.16,2.35-1.75,3.4-4.77,1.05-3.02,1.57-6.21,1.57-9.55,0-4.45-.96-7.64-2.88-9.55Z"/>
      <path class="cls-1" d="M253.23,217.46l-.95,45.75c-1.02,2.02-1.97,4.03-2.85,6.05-1.9,3.22-4.25,5.31-7.04,6.25-2.79-.4-4.95-1.31-6.47-2.72-1.52-1.41-3.04-2.79-4.57-4.13-1.27,4.17-4.38,7.32-9.33,9.47-4.57-1.07-7.93-4.5-10.09-10.28,1.27-2.55,3.62-7.52,7.04-14.91.12-1.07,0-2.59-.38-4.53-.38-1.95-.57-3.46-.57-4.53-1.65-1.21-4.76-3.36-9.33-6.45-.51,2.02-.76,16.8-.76,44.34-.89,3.9-2.79,7.09-5.71,9.57-2.92,2.49-5.52,3.6-7.8,3.32-4.82-.54-9.01-6.51-12.56-17.94-3.05-9.67-4.51-18-4.38-24.99.76-6.18,1.52-12.36,2.28-18.54,1.27-9.94,2.54-16.26,3.81-18.95.76-4.03,1.71-10.01,2.85-17.94,9.14,2.15,15.29,6.32,18.46,12.5.89,4.17,1.9,8.94,3.04,14.31,1.65-.67,4.31-1.54,7.99-2.62,1.14.27,5.96,1.75,14.46,4.43,0-9.81-.07-15.45-.19-16.93-.64-4.84-2.22-7.26-4.76-7.26-1.4,0-3.24.67-5.52,2.02,1.65-3.09,3.62-7.19,5.9-12.29.25-2.55,1.71-5.04,4.38-7.46,1.52-.54,3.05-.81,4.57-.81,3.81,0,6.47,1.34,7.99,4.03,2.28-.4,4.6-.03,6.95,1.11,2.35,1.14,3.52,2.52,3.52,4.13,1.01,1.88,1.52,5.11,1.52,9.67,0,4.84-.51,10.28-1.52,16.33Z"/>
      <path class="cls-1" d="M190.81,285.38c-2.03-9.14-3.55-15.18-4.57-18.14-.76-.27-1.27-.13-1.52.4-.38.54-.38,1.48,0,2.82.51,2.55,1.33,5.64,2.47,9.27,1.52,4.3,2.73,6.18,3.62,5.64Z"/>
      <path class="cls-1" d="M230.01,240.84c-1.4,2.15-3.49,4.23-6.28,6.25-.51,1.61-1.65,3.83-3.43,6.65,0,1.48-.51,4.17-1.52,8.06,5.33-1.61,8.95-5.17,10.85-10.68.38-1.88.57-3.69.57-5.44-.13-2.69-.19-4.3-.19-4.84Z"/>
      <g>
        <path class="cls-1" d="M681.35,282.83c0,6.55-2.83,12.02-8.49,16.39-5.33,4.18-11.52,6.27-18.58,6.27-11.65,0-19.38-4.87-23.17-14.61-.67-1.87-1-4.53-1-7.96,0-4-.13-6.68-.4-8.05,1.93,1.37,3.36,3.28,4.29,5.71,1.6,4.25,2.4,6.43,2.4,6.56,1.46,2.62,3.79,4.9,6.99,6.83,2.8,1.75,5.86,2.62,9.19,2.62,4.79,0,8.69-1.54,11.68-4.63s4.49-6.88,4.49-11.38c0-3.43-1.07-6.33-3.2-8.71-2.33-2.5-5.29-3.75-8.89-3.75-.6,0-1.47.16-2.6.47-1.13.31-1.96.47-2.5.47-1.73,0-3.56-1.22-5.49-3.65-1.86-2.25-2.8-4.18-2.8-5.81,0-.87.5-1.37,1.5-1.5-.8.06.07.09,2.6.09,5.33,0,9.6-1.34,12.83-4.03,3.23-2.68,4.84-6.52,4.84-11.52,0-2.68-.7-4.96-2.1-6.84-1.6-2.12-3.76-3.18-6.49-3.18-2.53,0-4.48.97-5.84,2.9-1.37,1.94-2.65,3.84-3.84,5.71-1.67,2.06-3.96,3.09-6.89,3.09-.73,0-1.95-.15-3.65-.47-1.7-.31-3.01-.44-3.95-.38.93-2.12,2.53-5.15,4.79-9.08,2.53-3.43,5.06-5.87,7.59-7.3,2.8-1.62,6.33-2.43,10.59-2.43,6.52,0,11.82,1.65,15.88,4.96,4.33,3.5,6.49,8.24,6.49,14.23,0,3.81-1.42,7.3-4.24,10.49-2.83,3.18-6.24,5.34-10.24,6.46,12.12,3.5,18.18,10.83,18.18,22.01Z"/>
        <path class="cls-1" d="M711.41,296.78c0,2.31-.83,4.21-2.5,5.71-1.67,1.5-3.7,2.25-6.09,2.25s-4.41-.77-6.04-2.29c-1.63-1.53-2.45-3.42-2.45-5.67s.81-4.15,2.45-5.71c1.63-1.56,3.64-2.34,6.04-2.34s4.51.78,6.14,2.34c1.63,1.56,2.45,3.46,2.45,5.71Z"/>
        <path class="cls-1" d="M793.11,265.04c0,10.49-1.6,19.1-4.79,25.84-4.39,9.24-11.45,13.86-21.17,13.86s-16.51-4.68-20.77-14.05c-3-6.74-4.49-15.29-4.49-25.66s1.53-18.67,4.59-25.28c4.26-9.11,11.15-13.67,20.67-13.67s16.78,4.5,21.17,13.48c3.2,6.62,4.79,15.11,4.79,25.47ZM779.03,265.04c0-20.6-3.96-30.9-11.88-30.9s-11.49,10.3-11.49,30.9,3.83,32.12,11.49,32.12c5.33,0,8.89-4.37,10.69-13.11.8-4.24,1.2-10.58,1.2-19.01Z"/>
      </g>
      <g>
        <path class="cls-1" d="M0,37.52v-6.93h24.27v6.93H0ZM14.36,31.89c.16-1.03.34-2.47.53-4.32.19-1.85.37-3.88.53-6.1.16-2.22.29-4.49.37-6.83s.1-4.5.04-6.48H1.59V1.35h21.37c-.03,2.67-.06,5-.08,6.99-.03,2-.07,3.81-.12,5.42-.05,1.62-.12,3.11-.18,4.49-.07,1.37-.16,2.75-.27,4.12-.11,1.37-.24,2.83-.41,4.38s-.35,3.3-.57,5.26l-6.97-.12ZM4.81,34.67V11.46h6.93v23.21h-6.93ZM26.22.04h7.34v38.66h-7.34V.04ZM29.65,22.8v-8.12h7.42v8.12h-7.42Z"/>
        <path class="cls-1" d="M58.48,0v1.92h6.61v6.24h-22.31V1.88h7.34V0h8.36ZM64.64,16.27c-.14,2.07-1.12,3.64-2.94,4.71-1.82,1.07-4.34,1.65-7.55,1.73-1.93.05-3.6-.07-5.02-.39-1.41-.31-2.59-.76-3.53-1.35-.94-.58-1.63-1.31-2.08-2.16s-.67-1.79-.67-2.79c.03-2.09.94-3.68,2.73-4.75,1.79-1.07,4.62-1.62,8.48-1.65,3.29,0,5.86.5,7.71,1.51,1.85,1.01,2.8,2.72,2.85,5.14ZM68.27,31.97h-24.59v-6.24h31.61v12.6h-7.02v-6.36ZM57.91,16.23c0-.41-.11-.74-.33-1-.22-.26-.51-.46-.88-.59-.37-.14-.79-.23-1.26-.29-.48-.05-.96-.08-1.45-.08s-.98.03-1.47.08c-.49.05-.93.14-1.33.27-.39.12-.72.3-.98.53-.26.23-.39.52-.39.88,0,.38.13.69.39.94.26.24.59.44,1,.59.41.15.86.25,1.35.31.49.06.98.08,1.47.08.46,0,.92-.03,1.39-.08.46-.05.88-.15,1.24-.29.37-.14.67-.31.9-.53.23-.22.35-.49.35-.82ZM68.39.04h6.89v24.02h-6.89V.04ZM78.92,16.19h-9.01v-7.06h9.01v7.06Z"/>
        <path class="cls-1" d="M105.26,1.47c.14,7.21-.41,12.89-1.63,17.05-1.14,4.08-2.87,7.69-5.18,10.85-2.31,3.15-5.21,5.71-8.69,7.67l-5.34-5.06c1.11-.49,2.19-1.13,3.22-1.92,1.03-.79,2-1.68,2.9-2.67.9-.99,1.73-2.05,2.49-3.18.76-1.13,1.43-2.28,2-3.45,1.85-3.86,2.77-7.56,2.77-11.09,0-.27,0-.53-.02-.77-.01-.24-.03-.48-.06-.69h-11.99V1.47h19.54ZM110.52.04h7.38v38.26h-7.38V.04Z"/>
        <path class="cls-1" d="M161.42,20.31h-35.89v-6.04h35.89v6.04ZM158.53,12.68c-1.14-.11-2.43-.3-3.85-.57-1.43-.27-2.84-.6-4.24-1-1.4-.39-2.72-.84-3.96-1.33-1.24-.49-2.22-1.01-2.96-1.55-.9.54-1.84,1.03-2.81,1.47-.98.44-2.05.84-3.22,1.2-1.17.37-2.45.71-3.85,1.02-1.4.31-2.97.62-4.71.92l-2.73-5.75c1.17-.08,2.45-.28,3.85-.59,1.4-.31,2.75-.73,4.04-1.26s2.45-1.17,3.47-1.92c1.02-.75,1.73-1.61,2.14-2.59h8.32c-.08.3-.22.64-.43,1.02-.2.38-.36.67-.47.86,1.31.98,3.03,1.82,5.18,2.53,2.15.71,4.91,1.25,8.28,1.63l-2.04,5.91ZM127.57,38.46l.04-9.79h23.98v-1.18h-24.39v-5.14h31.53v10.03h-23.94v1.39h24.43v4.69h-31.65ZM147.15,24.55h-7.63v-8.6h7.63v8.6Z"/>
        <path class="cls-1" d="M203.19,23.49h-35.89v-6.12h35.89v6.12ZM201.31,31.77c0,2.53-1.69,4.36-5.06,5.51-2.88.95-6.47,1.41-10.77,1.39-11.23-.05-16.84-2.35-16.84-6.89,0-1.55.48-2.78,1.43-3.69.95-.91,2.21-1.6,3.77-2.08,1.56-.48,3.36-.8,5.38-.96,2.03-.16,4.11-.26,6.26-.29,5.41-.05,9.4.52,11.97,1.73,2.57,1.21,3.85,2.97,3.85,5.28ZM201.06,7.87c-.03,1.66-.56,2.96-1.61,3.92-1.05.95-2.36,1.66-3.94,2.12-1.58.46-3.3.75-5.16.88-1.86.12-3.62.18-5.28.18-1.12,0-2.29-.02-3.53-.06-1.24-.04-2.45-.14-3.63-.31-1.18-.16-2.31-.39-3.38-.69-1.07-.3-2.02-.71-2.83-1.24-.82-.53-1.46-1.18-1.92-1.96-.46-.77-.68-1.72-.65-2.83-.03-1.09.19-2.02.65-2.79.46-.77,1.09-1.43,1.88-1.98.79-.54,1.71-.98,2.77-1.31s2.19-.58,3.38-.75c1.2-.18,2.42-.29,3.67-.35,1.25-.05,2.45-.08,3.59-.08,1.01,0,2.1.03,3.28.08,1.18.05,2.37.16,3.57.33,1.2.16,2.35.4,3.47.71,1.11.31,2.09.74,2.94,1.28.84.54,1.52,1.21,2.02,2,.5.79.74,1.74.71,2.85ZM181.77,20.76h-6.57v-9.58h6.57v9.58ZM194.17,7.87c0-.44-.35-.77-1.04-1.02-.69-.24-1.52-.43-2.49-.55-.97-.12-1.95-.19-2.96-.2-1.01-.01-1.82,0-2.45.02-1.2.03-2.33.04-3.41.04s-2.02.04-2.83.12c-.82.08-1.46.24-1.94.49-.48.25-.71.61-.71,1.1,0,.33.16.59.49.79.33.2.75.37,1.26.51.52.14,1.11.22,1.77.27.67.04,1.33.08,1.98.1.65.03,1.28.03,1.88.02.6-.01,1.1-.02,1.51-.02h2.49c1.01,0,1.99-.05,2.96-.14.96-.1,1.79-.26,2.47-.49.68-.23,1.02-.58,1.02-1.04ZM194.01,31.77c0-1.47-2.84-2.2-8.52-2.2-.3,0-.73,0-1.28.02-.56.01-1.16.05-1.81.1-.65.05-1.32.13-2,.22-.68.1-1.29.22-1.84.39-.54.16-.99.37-1.35.61-.35.25-.53.53-.53.86,0,1.52,2.94,2.28,8.81,2.28s8.52-.76,8.52-2.28ZM195.64,20.72h-6.57v-9.58h6.57v9.58Z"/>
        <path class="cls-1" d="M231.45,19.29c0,6.34-.45,10.6-1.35,12.81-.71,1.79-1.76,3.11-3.16,3.94-1.4.83-3.3,1.24-5.69,1.24-1.71,0-3.12-.19-4.22-.57-1.1-.38-2.06-.98-2.88-1.79-1.36-1.44-2.27-3.59-2.73-6.44-.24-1.71-.37-4.77-.37-9.18,0-6.72.46-10.98,1.39-12.81.71-1.77,1.76-3.08,3.16-3.94,1.4-.86,3.28-1.28,5.65-1.28,1.79,0,3.26.2,4.38.59,1.13.39,2.11,1,2.96,1.81,1.39,1.39,2.26,3.54,2.61,6.44.16,1.39.24,4.45.24,9.18ZM224.47,19.05c0-4.73-.1-7.3-.29-7.71-.22-1.03-.54-1.8-.96-2.3-.42-.5-1.08-.75-1.98-.75-.76,0-1.33.14-1.69.43-.37.29-.69.74-.96,1.37-.41.92-.61,2.52-.61,4.77v2.04c.03.46.04.87.04,1.22v.94c0,4.43.08,7.04.25,7.83.19,1.09.5,1.9.92,2.45.42.54,1.11.82,2.06.82s1.64-.27,2.06-.82c.42-.54.74-1.36.96-2.45.05-.38.1-1.2.14-2.47.04-1.26.06-3.05.06-5.36ZM241.85,20.92h-13.54v-6.85h13.54v6.85ZM235.81.04h7.38v38.26h-7.38V.04Z"/>
        <path class="cls-1" d="M270.64,36.71c-.54-.6-1.18-1.38-1.92-2.35-.73-.96-1.49-2-2.26-3.1-.77-1.1-1.53-2.21-2.26-3.32-.73-1.11-1.39-2.12-1.96-3.02-.35,1.22-.79,2.42-1.31,3.59-.52,1.17-1.07,2.28-1.65,3.34-.58,1.06-1.18,2.06-1.79,3s-1.2,1.8-1.77,2.59l-6.32-3.59c1.69-2.37,3.05-4.85,4.1-7.44,1.05-2.6,1.86-5.28,2.43-8.05.57-2.77.94-5.63,1.12-8.59.18-2.95.25-5.96.22-9.03h7.34c0,.19,0,.54-.02,1.06-.01.52-.03,1.11-.04,1.77-.01.67-.03,1.37-.04,2.12-.01.75-.02,1.46-.02,2.14v1.81c0,.53.01.9.04,1.12.11.71.4,1.65.88,2.83.48,1.18,1.06,2.48,1.75,3.9.69,1.41,1.45,2.87,2.26,4.36.82,1.5,1.62,2.91,2.41,4.24.79,1.33,1.52,2.52,2.2,3.55.68,1.03,1.22,1.78,1.63,2.24l-5.02,4.81ZM276.76.04h7.38v38.26h-7.38V.04ZM279,15.21h8.73v7.75h-8.73v-7.75Z"/>
        <path class="cls-1" d="M312.04,24.88c-.52-.35-1.14-.8-1.86-1.33-.72-.53-1.45-1.09-2.18-1.67-.73-.58-1.42-1.16-2.06-1.73-.64-.57-1.12-1.06-1.45-1.47-.52.68-1,1.26-1.45,1.75-.45.49-.94.97-1.47,1.43-.53.46-1.13.94-1.79,1.45-.67.5-1.48,1.11-2.43,1.81l-5.14-5.34c1.11-.49,2.18-1.16,3.2-2.02,1.02-.86,1.92-1.82,2.71-2.9.79-1.07,1.43-2.22,1.92-3.43.49-1.21.75-2.4.77-3.57h-6.08V.82h20.19v7.06h-6.12c-.05.38-.12.83-.2,1.35-.08.52-.19,1.09-.33,1.71,1.2,1.96,2.49,3.58,3.87,4.87,1.39,1.29,2.87,2.5,4.45,3.61l-4.57,5.47ZM295.6,26.84h7.54v5.1h24.06v6.36h-31.61v-11.46ZM325.37,16.48h-11.42v-7.06h11.42v7.06ZM319.3.08h7.46v27.81h-7.46V.08Z"/>
      </g>
    </g>
  </g>
</svg>