<?xml version="1.0" encoding="UTF-8"?>
<svg id="Layer_2" data-name="Layer 2" xmlns="http://www.w3.org/2000/svg" viewBox="0 0 556.06 193.98">
  <defs>
    <style>
      .cls-1 {
        fill: #1b3148;
        stroke-width: 0px;
      }
    </style>
  </defs>
  <g id="Layer_1-2" data-name="Layer 1">
    <path class="cls-1" d="M555.45,41.87c-2.72-.25-5.5-.99-8.15-.66-9.71,1.21-19.58,2-29.03,4.37-26.26,6.62-52.43,13.61-78.46,21.07-43.92,12.59-87.78,25.48-129.96,43.27-12.21,5.15-23.93,11.49-35.79,17.47-3.29,1.67-5.05,4.65-3.1,8.32,1.93,3.62,5.35,3.6,8.72,2.33,2.94-1.12,5.78-2.52,8.63-3.89,24.28-11.65,47.93-24.92,72.96-34.63,45.88-17.81,93.44-30.53,141.43-41.46.93-.21,1.96-.02,2.94-.02.07.42.14.85.21,1.28-9.63,3.49-19.22,7.07-28.87,10.46-35.12,12.33-70.4,24.19-105.3,37.11-10.93,4.05-21.02,10.57-31.06,16.68-2.38,1.45-4.41,6.02-3.99,8.76.33,2.15,4.47,4.8,7.27,5.32,15.76,2.93,31.48,2.43,46.68-3.12,7.4-2.7,14.3-6.52,18.25-13.91,3.13-5.85,1.51-10.2-4.85-11.91-10.2-2.75-19.24.15-28.74,7.09,2.55.43,3.79.36,4.73.87,1.47.79,2.75,1.96,4.11,2.98-.98,1.23-1.74,3.18-2.98,3.56-4.67,1.43-9.46,2.89-14.28,3.2-1.92.13-5.19-2.36-5.73-4.27-.5-1.77,1.4-4.73,3.01-6.45,1.63-1.73,4.1-2.85,6.39-3.76,11.28-4.47,22.45-9.3,33.96-13.05,31.12-10.15,62.55-19.37,93.55-29.84,17.12-5.79,33.67-13.27,50.37-20.22,2.81-1.17,5.14-3.51,7.69-5.31-.2-.54-.4-1.09-.61-1.64ZM205.18,51.52c-5.68.74-11.7,1.24-16.8,3.56-30.11,13.69-60.01,27.84-89.96,41.88-20.16,9.46-40.28,19-60.42,28.5-4.01,1.89-6.45,4.69-7.12,9.41-.58,4.09,1.1,5.45,4.5,5.02,4.09-.5,8.31-1.1,12.11-2.58,13.93-5.43,27.68-11.31,41.55-16.9,8.32-3.35,16.66-6.68,25.16-9.51,1.94-.64,5.26.15,6.65,1.56.96.96.44,4.77-.75,6.22-4.27,5.25-8.64,10.61-13.82,14.9-14.18,11.72-30.22,20.56-46.91,28.15-15.44,7.01-31.01,13.72-46.52,20.56-5.53,2.43-9.81,6.22-12.85,11.65,3.21.14,6.17-.08,8.93-.94,8.88-2.78,17.72-5.69,26.52-8.73,40.18-13.9,75.72-35.54,106.77-64.58,3.28-3.06,6.73-6.13,9.21-9.79,1.77-2.61,3.47-6.73,2.58-9.24-.76-2.15-5.19-3.11-8.1-4.34-1.14-.48-2.57-.27-3.86-.38-.12-.41-.23-.82-.34-1.22,5.16-2.49,10.23-5.21,15.51-7.4,8.26-3.43,15.48-8.99,24.75-10.59,4.54-.78,8.58-4.86,12.72-7.64,4.54-3.05,9.11-6.12,13.32-9.61,1.59-1.31,2.2-3.81,3.26-5.77-2.04-.78-4.19-2.43-6.09-2.19ZM419.35,41.98c5.75-4.21,11.71-7.76,17.54-11.52,1.13-.72,2.65-2.5,2.4-3.32-.4-1.33-1.95-2.55-3.3-3.28-1.08-.59-2.59-.56-3.9-.49-14.5.76-25.61,7.75-33.7,19.42-2.89,4.17-6.36,6.41-11,7.77-16.24,4.75-31.42,11.91-45.4,21.4-27.7,18.77-55.76,36.92-85.51,52.32-7.38,3.83-14.73,7.74-22.2,11.39-1.47.72-3.44.41-5.17.58-.06-1.72-.37-3.48-.11-5.15.35-2.28,1.33-4.48,1.7-6.76,1.04-6.51-2.28-9.74-8.58-7.91-8.12,2.37-16.18,5.04-24.12,7.98-8.97,3.33-17.77,7.12-26.64,10.7-.22-.49-.43-.97-.65-1.46,2.63-1.31,5.2-2.79,7.92-3.88,21.72-8.78,43.24-18.17,65.29-26.02,24.26-8.64,49.03-15.82,73.56-23.68,6.76-2.16,12.15-6.17,15.43-12.6,2.64-5.16,1.19-7.59-4.41-6.61-4.69.82-9.22,2.66-13.72,4.33-23.52,8.72-46.96,17.65-70.54,26.22-4.31,1.56-9.08,2.03-13.69,2.44-1.61.15-4.38-1.08-4.78-2.29-.46-1.37.68-3.95,1.95-5.09,2.82-2.55,6-4.78,9.29-6.69,10.63-6.2,21.47-12.04,31.99-18.4,2.05-1.24,3.04-4.23,4.52-6.42-2.46-1.45-4.79-3.75-7.42-4.16-3.5-.54-7.39-.17-10.84.8-6.69,1.88-13.63,3.62-19.69,6.88-17.27,9.28-34.15,19.3-51.17,29.05-.25.15-.28.67-.64,1.59,4.55-1.41,8.78-2.72,13.42-4.16.77-.24,1.55-.49,2.35-.73.79-.24,1.6-.49,2.43-.75h.01c-.22.25-.43.5-.65.74-3.22,3.68-5.82,6.37-8.01,9.35-2.53,3.44-4.89,7.96-2.04,11.46,2.01,2.46,6.54,3.19,10.1,3.95,2.32.49,4.93-.28,7.4-.61,2.7-.36,5.38-.87,8.07-1.31-.7,1.35-1.63,1.89-2.63,2.28-14.27,5.48-28.85,10.26-42.73,16.59-13.56,6.17-26.51,13.75-39.47,21.14-2.14,1.22-4.56,5.11-4.03,6.97.58,2.02,4.26,3.83,6.89,4.46,9.86,2.35,18.55-.45,26.67-6.43,12.38-9.11,25.77-16.49,40.18-21.93,1.61-.61,3.32-.94,5.33-1.49-2.44,6.57-4.96,12.34-6.71,18.34-1.76,6.01-.01,8.01,6.38,7.65,10.91-.62,21.49-2.97,30.89-8.74,12.19-7.47,24.29-15.12,36.09-23.19,26.37-18.04,52.46-36.49,81.11-50.87,1.18-.59,2.41-1.07,4.77-2.11q-11.1,12.27-3.12,17.12c-2.06,1.52-4,2.96-5.95,4.39,6.09-1.6,11.74-3.93,17.58-5.62,16.01-4.63,31.92-9.53,45.99-18.75,3.1-2.04,7.42-6.25,7.04-8.84-1.16-7.67,4.44-7.74,8.52-9.68,4.8-2.29,9.75-4.25,14.59-6.46,1.55-.71,2.94-1.77,5.13-3.13-11.41-5.5-20.47.67-30.01,3.22ZM399.47,63.23c-6.17,4.98-13.25,8.07-22.4,8.93-.98-.45-2.81-1.3-4.63-2.15,1.01-1.74,1.61-4.31,3.11-5.08,6.73-3.43,13.61-6.62,20.67-9.25,1.72-.63,4.36,1.2,6.57,1.9-1.08,1.91-1.73,4.36-3.32,5.65Z"/>
    <path class="cls-1" d="M142.05,95.94c1.3.11,2.72-.1,3.86.38,2.91,1.23,7.34,2.19,8.11,4.34.89,2.51-.81,6.63-2.58,9.24-2.49,3.66-5.93,6.73-9.21,9.79-31.06,29.04-66.59,50.68-106.78,64.58-8.8,3.04-17.64,5.95-26.52,8.73-2.76.86-5.71,1.08-8.93.94,3.04-5.43,7.33-9.22,12.85-11.65,15.51-6.84,31.09-13.54,46.52-20.56,16.69-7.59,32.73-16.42,46.91-28.15,5.18-4.29,9.55-9.65,13.82-14.9,1.18-1.46,1.71-5.27.75-6.23-1.4-1.41-4.72-2.2-6.66-1.55-8.5,2.83-16.84,6.16-25.16,9.51-13.87,5.58-27.62,11.46-41.55,16.9-3.8,1.48-8.02,2.08-12.11,2.58-3.4.42-5.08-.94-4.5-5.03.67-4.71,3.11-7.51,7.12-9.4,20.14-9.5,40.26-19.04,60.42-28.5,29.95-14.04,59.85-28.19,89.96-41.88,5.1-2.32,11.12-2.83,16.79-3.56,1.91-.25,4.06,1.41,6.09,2.19-1.06,1.96-1.67,4.45-3.26,5.77-4.21,3.49-8.78,6.56-13.33,9.61-4.14,2.78-8.17,6.86-12.72,7.64-9.27,1.6-16.48,7.15-24.74,10.58-5.28,2.19-10.35,4.91-15.51,7.4.11.41.22.82.33,1.22Z"/>
    <path class="cls-1" d="M375.24,115.8c9.5-6.94,18.55-9.84,28.74-7.09,6.36,1.71,7.98,6.06,4.85,11.92-3.95,7.39-10.84,11.2-18.25,13.91-15.2,5.55-30.92,6.05-46.68,3.12-2.8-.52-6.94-3.16-7.27-5.32-.42-2.73,1.61-7.3,3.99-8.75,10.04-6.11,20.13-12.63,31.06-16.68,34.89-12.92,70.18-24.79,105.29-37.12,9.66-3.39,19.25-6.97,28.87-10.46-.07-.43-.14-.85-.21-1.28-.98,0-2-.19-2.94.03-47.99,10.92-95.55,23.65-141.43,41.45-25.03,9.71-48.68,22.98-72.96,34.63-2.84,1.36-5.68,2.77-8.63,3.89-3.37,1.27-6.79,1.29-8.72-2.33-1.95-3.66-.19-6.65,3.1-8.31,11.85-5.98,23.57-12.33,35.79-17.48,42.18-17.79,86.04-30.68,129.96-43.27,26.03-7.46,52.2-14.45,78.46-21.06,9.45-2.38,19.32-3.16,29.03-4.38,2.65-.33,5.43.42,8.16.67.2.55.4,1.09.6,1.64-2.55,1.8-4.87,4.14-7.68,5.31-16.71,6.95-33.26,14.43-50.37,20.21-31.01,10.48-62.43,19.7-93.55,29.84-11.51,3.75-22.68,8.58-33.96,13.05-2.29.91-4.76,2.03-6.39,3.77-1.61,1.71-3.51,4.68-3.01,6.45.54,1.9,3.81,4.39,5.73,4.27,4.82-.31,9.61-1.77,14.27-3.2,1.24-.38,2-2.33,2.98-3.56-1.36-1.01-2.64-2.19-4.11-2.98-.94-.5-2.18-.43-4.73-.87Z"/>
    <path class="cls-1" d="M419.35,41.98c5.75-4.21,11.71-7.76,17.54-11.52,1.13-.72,2.65-2.5,2.4-3.32-.4-1.33-1.95-2.55-3.3-3.28-1.08-.59-2.59-.56-3.9-.49-14.5.76-25.61,7.75-33.7,19.42-2.89,4.17-6.36,6.41-11,7.77-16.24,4.75-31.42,11.91-45.4,21.4-27.7,18.77-55.76,36.92-85.51,52.32-7.38,3.83-14.73,7.74-22.2,11.39-1.47.72-3.44.41-5.17.58-.06-1.72-.37-3.48-.11-5.15.35-2.28,1.33-4.48,1.7-6.76,1.04-6.51-2.28-9.74-8.58-7.91-8.12,2.37-16.18,5.04-24.12,7.98-8.97,3.33-17.77,7.12-26.64,10.7-.22-.49-.43-.97-.65-1.46,2.63-1.31,5.2-2.79,7.92-3.88,21.72-8.78,43.24-18.17,65.29-26.02,24.26-8.64,49.03-15.82,73.56-23.68,6.76-2.16,12.15-6.17,15.43-12.6,2.64-5.16,1.19-7.59-4.41-6.61-4.69.82-9.22,2.66-13.72,4.33-23.52,8.72-46.96,17.65-70.54,26.22-4.31,1.56-9.08,2.03-13.69,2.44-1.61.15-4.38-1.08-4.78-2.29-.46-1.37.68-3.95,1.95-5.09,2.82-2.55,6-4.78,9.29-6.69,10.63-6.2,21.47-12.04,31.99-18.4,2.05-1.24,3.04-4.23,4.52-6.42-2.46-1.45-4.79-3.75-7.42-4.16-3.5-.54-7.39-.17-10.84.8-6.69,1.88-13.63,3.62-19.69,6.88-17.27,9.28-34.15,19.3-51.17,29.05-.25.15-.28.67-.64,1.59,4.55-1.41,8.78-2.72,13.42-4.16.77-.24,1.55-.49,2.35-.73.8-.25,1.61-.5,2.44-.76h0s-.01.01-.01.01c-.22.25-.43.5-.64.74-3.22,3.68-5.82,6.37-8.01,9.35-2.53,3.44-4.89,7.96-2.04,11.46,2.01,2.46,6.54,3.19,10.1,3.95,2.32.49,4.93-.28,7.4-.61,2.7-.36,5.38-.87,8.07-1.31-.7,1.35-1.63,1.89-2.63,2.28-14.27,5.48-28.85,10.26-42.73,16.59-13.56,6.17-26.51,13.75-39.47,21.14-2.14,1.22-4.56,5.11-4.03,6.97.58,2.02,4.26,3.83,6.89,4.46,9.86,2.35,18.55-.45,26.67-6.43,12.38-9.11,25.77-16.49,40.18-21.93,1.61-.61,3.32-.94,5.33-1.49-2.44,6.57-4.96,12.34-6.71,18.34-1.76,6.01-.01,8.01,6.38,7.65,10.91-.62,21.49-2.97,30.89-8.74,12.19-7.47,24.29-15.12,36.09-23.19,26.37-18.04,52.46-36.49,81.11-50.87,1.18-.59,2.41-1.07,4.77-2.11q-11.1,12.27-3.12,17.12c-2.06,1.52-4,2.96-5.95,4.39,6.09-1.6,11.74-3.93,17.58-5.62,16.01-4.63,31.92-9.53,45.99-18.75,3.1-2.04,7.42-6.25,7.04-8.84-1.16-7.67,4.44-7.74,8.52-9.68,4.8-2.29,9.75-4.25,14.59-6.46,1.55-.71,2.94-1.77,5.13-3.13-11.41-5.5-20.47.67-30.01,3.22ZM399.47,63.23c-6.17,4.98-13.25,8.07-22.4,8.93-.98-.45-2.81-1.3-4.63-2.15,1.01-1.74,1.61-4.31,3.11-5.08,6.73-3.43,13.61-6.62,20.67-9.25,1.72-.63,4.36,1.2,6.57,1.9-1.08,1.91-1.73,4.36-3.32,5.65Z"/>
    <g>
      <path class="cls-1" d="M114.76,32.9c-3.04.49-5.74.79-8.11.88-1.91.07-7.17.11-15.78.11V.7h22.71v6.11h-14.4v20.39c4.35.02,6.84.02,7.47,0,1.95-.07,4.14-.33,6.58-.77l1.53,6.48ZM119.75,0h8.96v34.52h-8.96V0ZM122.48,13.69h10.59v6.99h-10.59v-6.99Z"/>
      <path class="cls-1" d="M185.49,18.69h-43.49v-6.33h43.49v6.33ZM182.37,22.41v12.14h-8.81v-6.07h-29.05v-6.07h37.85ZM171.09,16.19c.59-1.1,1.05-2.41,1.36-3.92.31-1.51.57-3.18.77-5.02h-28.5V.74h37.85c-.03,1.99-.07,3.63-.1,4.93-.03,1.3-.12,2.48-.25,3.53-.13,1.06-.34,2.11-.62,3.16-.28,1.06-.69,2.33-1.21,3.83h-9.3ZM158.77,13.4h9.2v9.86h-9.2v-9.86Z"/>
      <path class="cls-1" d="M222.87,17.37c0,5.72-.54,9.57-1.63,11.56-.86,1.62-2.14,2.8-3.83,3.55-1.7.75-4,1.12-6.9,1.12-2.08,0-3.79-.17-5.12-.52-1.34-.34-2.5-.88-3.49-1.62-1.65-1.3-2.75-3.24-3.31-5.81-.3-1.55-.45-4.31-.45-8.28,0-6.06.56-9.91,1.68-11.56.86-1.59,2.14-2.78,3.83-3.55,1.7-.77,3.98-1.16,6.85-1.16,2.18,0,3.95.18,5.32.53,1.37.36,2.56.9,3.59,1.64,1.68,1.25,2.74,3.19,3.17,5.81.2,1.25.3,4.01.3,8.28ZM214.41,17.15c0-4.27-.12-6.59-.35-6.96-.26-.93-.65-1.62-1.16-2.08-.51-.45-1.31-.68-2.4-.68-.92,0-1.61.13-2.05.39-.45.26-.83.67-1.16,1.23-.5.83-.74,2.27-.74,4.31v1.84c.03.42.05.79.05,1.1v.85c0,4,.1,6.35.3,7.07.23.98.6,1.72,1.11,2.21.51.49,1.34.74,2.5.74s1.99-.24,2.5-.74c.51-.49.9-1.23,1.16-2.21.07-.34.12-1.09.17-2.23.05-1.14.07-2.75.07-4.84ZM235.48,18.84h-16.43v-6.18h16.43v6.18ZM228.16,0h8.96v34.52h-8.96V0Z"/>
      <path class="cls-1" d="M273.46,33.08c-.66-.54-1.43-1.25-2.33-2.12s-1.81-1.8-2.75-2.8c-.94-.99-1.86-1.99-2.75-3-.89-1.01-1.68-1.91-2.38-2.72-.43,1.1-.96,2.18-1.58,3.24-.63,1.06-1.3,2.06-2,3.02-.71.96-1.43,1.86-2.18,2.7-.74.85-1.46,1.62-2.15,2.34l-7.67-3.24c2.04-2.13,3.7-4.37,4.97-6.72,1.27-2.34,2.25-4.77,2.94-7.27s1.15-5.08,1.36-7.75c.21-2.66.3-5.38.27-8.15h8.91c0,.17,0,.49-.02.96-.02.47-.03,1-.05,1.6-.02.6-.03,1.24-.05,1.91-.02.67-.02,1.32-.02,1.93v1.64c0,.48.02.82.05,1.01.13.64.49,1.49,1.06,2.56.58,1.07,1.29,2.24,2.13,3.51.84,1.28,1.76,2.59,2.75,3.94.99,1.35,1.96,2.63,2.92,3.83.96,1.2,1.85,2.27,2.67,3.2.82.93,1.48,1.61,1.98,2.02l-6.09,4.34ZM280.88,0h8.96v34.52h-8.96V0ZM283.6,13.69h10.59v6.99h-10.59v-6.99Z"/>
      <path class="cls-1" d="M326.72,22.41c-.63-.32-1.38-.72-2.25-1.2s-1.76-.98-2.65-1.51c-.89-.53-1.72-1.05-2.5-1.56s-1.36-.96-1.76-1.32c-.63.61-1.21,1.14-1.76,1.58-.54.44-1.14.87-1.78,1.29-.64.42-1.37.85-2.18,1.31-.81.45-1.79,1-2.94,1.64l-6.24-4.82c1.35-.44,2.65-1.05,3.88-1.82s2.33-1.64,3.29-2.61c.96-.97,1.73-2,2.33-3.09.59-1.09.91-2.16.94-3.22h-7.37V.7h24.49v6.37h-7.42c-.07.34-.15.75-.25,1.21-.1.47-.23.98-.4,1.55,1.45,1.77,3.02,3.23,4.7,4.4,1.68,1.17,3.48,2.25,5.39,3.26l-5.54,4.93ZM306.78,24.18h9.15v4.6h29.19v5.74h-38.35v-10.34ZM342.9,14.83h-13.85v-6.37h13.85v6.37ZM335.53.04h9.06v25.1h-9.06V.04Z"/>
    </g>
  </g>
</svg>