<svg xmlns="http://www.w3.org/2000/svg" xmlns:xlink="http://www.w3.org/1999/xlink" viewBox="0 0 130 87"><path d="M 45.14 14.042 L 42.916 19.626 C 41.343 19.308 39.894 18.9 38.572 18.4 C 37.249 17.901 36.006 17.322 34.843 16.664 C 34.227 16.323 33.623 15.915 33.03 15.438 C 32.437 14.938 31.787 14.394 31.08 13.803 C 30.1 14.598 29.267 15.233 28.583 15.71 C 27.922 16.164 27.488 16.448 27.283 16.562 C 26.325 17.106 25.208 17.628 23.931 18.128 C 22.654 18.605 21.183 19.036 19.518 19.422 L 17.055 14.008 C 18.423 13.781 19.632 13.486 20.681 13.122 C 21.753 12.736 22.768 12.282 23.726 11.76 C 24.82 11.17 25.698 10.568 26.36 9.956 C 27.021 9.32 27.511 8.571 27.831 7.708 L 18.013 7.708 L 18.013 2.158 L 44.148 2.158 L 44.148 7.708 L 34.433 7.708 C 34.364 7.89 34.296 8.015 34.227 8.083 C 34.182 8.151 34.136 8.31 34.091 8.559 C 34.98 9.785 36.428 10.92 38.435 11.965 C 39.53 12.487 40.624 12.918 41.719 13.258 C 42.813 13.599 43.954 13.86 45.14 14.042 Z M 34.398 31.68 L 27.796 31.68 L 27.796 18.979 L 34.398 18.979 Z M 46.269 32.429 L 16.234 32.429 L 16.234 26.743 L 46.269 26.743 Z" fill="rgb(27,49,72)"></path><path d="M 66.418 22.316 C 65.027 21.204 63.67 20.114 62.347 19.047 C 61.047 17.98 59.816 16.72 58.653 15.268 C 58.242 16.017 57.843 16.698 57.456 17.311 C 57.091 17.924 56.715 18.502 56.327 19.047 C 55.939 19.592 55.517 20.137 55.061 20.682 C 54.628 21.204 54.149 21.76 53.624 22.35 L 48.425 18.877 C 49.656 17.674 50.717 16.346 51.606 14.893 C 52.518 13.44 53.248 11.965 53.795 10.466 C 54.366 8.945 54.765 7.424 54.993 5.903 C 55.244 4.382 55.335 2.952 55.266 1.613 L 61.697 1.613 C 61.697 1.84 61.663 2.203 61.595 2.703 C 61.549 3.179 61.492 3.69 61.424 4.235 C 61.355 4.78 61.287 5.302 61.219 5.801 C 61.173 6.278 61.15 6.641 61.15 6.891 C 61.424 7.64 61.903 8.514 62.587 9.513 C 63.271 10.512 64.035 11.499 64.879 12.475 C 65.745 13.429 66.635 14.303 67.547 15.097 C 68.459 15.892 69.269 16.459 69.976 16.8 Z M 76.68 13.361 L 67.102 13.361 L 67.102 7.47 L 76.68 7.47 Z M 72.233 1.034 L 78.493 1.034 L 78.493 24.257 L 72.233 24.257 Z M 52.359 23.372 L 58.687 23.372 L 58.687 27.628 L 78.87 27.628 L 78.87 32.94 L 52.359 32.94 Z" fill="rgb(27,49,72)"></path><path d="M 84.789 16.221 L 84.789 1.579 L 102.03 1.579 L 102.03 16.221 Z M 96.077 6.584 L 90.775 6.584 L 90.775 11.011 L 96.077 11.011 Z M 114.413 6.516 L 114.413 12.407 L 106.511 12.407 L 106.511 6.516 Z M 105.587 1 L 111.368 1 L 111.368 16.97 L 105.587 16.97 Z M 90.673 28.616 L 111.573 28.616 L 111.573 33.042 L 85.131 33.042 L 85.131 24.019 L 105.724 24.019 L 105.724 22.759 L 84.96 22.759 L 84.96 18.434 L 111.402 18.434 L 111.402 27.424 L 90.673 27.424 Z" fill="rgb(27,49,72)"></path><path d="M 16.644 49.996 L 7.978 49.996 L 7.978 79.371 C 7.978 79.977 8.024 80.385 8.115 80.597 C 8.237 80.809 8.541 80.945 9.027 81.006 L 12.311 81.006 C 13.619 79.25 14.531 78.373 15.048 78.373 C 15.474 78.373 15.945 78.675 16.462 79.281 C 18.104 81.248 18.925 82.625 18.925 83.412 C 18.925 84.139 18.089 84.502 16.416 84.502 L 4.056 84.502 C 2.019 84.502 1 82.988 1 79.962 L 1 45.184 C 2.155 45.517 3.813 45.698 5.971 45.729 C 7.492 45.789 8.252 45.971 8.252 46.273 C 8.252 46.364 8.176 46.531 8.024 46.773 L 11.855 46.773 C 13.163 45.29 14.029 44.548 14.455 44.548 C 14.911 44.548 15.534 44.942 16.325 45.729 C 17.754 47.242 18.469 48.332 18.469 48.997 C 18.469 49.663 17.86 49.996 16.644 49.996 Z M 27.591 82.141 C 27.682 82.837 27.727 83.336 27.727 83.639 C 27.727 84.547 27.408 85.107 26.77 85.319 C 26.374 85.531 25.158 85.637 23.121 85.637 C 22.665 85.637 22.3 85.622 22.026 85.591 C 21.783 85.561 21.601 85.47 21.479 85.319 C 21.357 85.198 21.281 85.001 21.251 84.729 C 21.22 84.487 21.205 84.139 21.205 83.685 L 21.205 44.094 C 22.269 44.155 23.318 44.23 24.352 44.321 C 25.386 44.412 26.42 44.503 27.454 44.593 C 29.217 44.775 30.099 45.396 30.099 46.455 C 30.099 46.848 29.78 47.227 29.141 47.59 C 28.533 47.923 28.016 48.059 27.591 47.999 Z M 31.011 43.368 C 32.167 43.731 34.356 44.049 37.579 44.321 C 39.677 44.503 40.742 44.972 40.772 45.728 C 40.833 46.485 40.65 47.03 40.225 47.363 C 39.829 47.666 39.084 47.908 37.99 48.089 L 37.99 82.186 C 37.99 84.033 37.822 85.122 37.488 85.455 C 37.093 85.818 35.633 86 33.109 86 C 31.984 86 31.346 85.924 31.194 85.773 C 31.042 85.622 30.966 85.092 30.966 84.184 Z M 32.38 66.568 L 25.858 66.568 L 25.858 63.027 L 32.425 63.027 Z" fill="rgb(27,49,72)"></path><path d="M 67 77.782 C 67.152 78.478 67.273 79.084 67.365 79.598 C 67.456 80.113 67.501 80.537 67.501 80.87 C 67.501 82.322 67.152 83.412 66.452 84.139 C 65.753 84.865 64.902 85.228 63.898 85.228 C 62.743 85.228 61.663 84.789 60.66 83.912 C 59.687 83.064 59.079 81.899 58.835 80.416 C 58.41 78.751 58.06 77.404 57.786 76.375 C 57.513 75.346 57.285 74.619 57.102 74.196 C 56.707 72.833 56.357 71.532 56.053 70.291 C 55.749 69.02 55.308 67.748 54.73 66.477 C 54.487 68.657 53.925 70.745 53.043 72.743 C 52.161 74.74 51.279 76.556 50.398 78.191 C 48.968 80.854 47.357 82.807 45.563 84.048 C 43.891 85.258 42.735 85.864 42.096 85.864 C 41.853 85.864 41.732 85.728 41.732 85.455 C 41.732 85.031 42.127 84.154 42.917 82.822 C 43.739 81.127 44.483 78.963 45.152 76.329 C 45.852 73.666 46.429 70.654 46.886 67.294 C 47.372 63.935 47.737 60.287 47.98 56.353 C 48.224 52.418 48.3 48.301 48.208 44.003 L 55.323 44.684 C 57.695 44.715 58.942 45.199 59.063 46.137 C 59.094 46.985 58.835 47.575 58.288 47.908 C 57.923 48.089 57.148 48.271 55.962 48.453 C 55.992 49.3 55.992 50.299 55.962 51.449 C 55.962 52.569 55.932 53.75 55.871 54.991 C 55.81 56.201 55.719 57.412 55.597 58.623 C 55.506 59.833 55.384 60.968 55.232 62.028 C 58.699 65.145 61.359 68.006 63.214 70.609 C 65.099 73.212 66.361 75.603 67 77.782 Z M 82.918 46.182 C 82.978 46.879 82.674 47.408 82.005 47.772 C 81.549 47.983 80.728 48.211 79.542 48.453 L 79.542 81.369 C 79.816 82.428 79.953 83.215 79.953 83.73 C 79.953 84.638 79.558 85.258 78.767 85.591 C 77.977 85.834 76.669 85.955 74.845 85.955 C 73.446 85.955 72.625 85.894 72.382 85.773 C 71.926 85.561 71.698 85.092 71.698 84.365 C 71.698 83.972 71.743 83.412 71.834 82.686 L 71.834 43.64 C 72.503 43.791 73.248 43.912 74.069 44.003 C 74.921 44.064 75.863 44.109 76.897 44.139 C 77.961 44.17 78.843 44.2 79.542 44.23 C 80.242 44.261 80.744 44.306 81.048 44.366 C 82.264 44.639 82.887 45.244 82.918 46.182 Z M 85.244 66.75 L 77.718 66.75 L 77.718 62.981 L 80.591 62.89 C 81.838 61.347 82.735 60.575 83.282 60.575 C 83.678 60.575 84.134 60.832 84.651 61.347 C 86.202 63.344 86.977 64.722 86.977 65.478 C 86.977 66.175 86.399 66.598 85.244 66.75 Z" fill="rgb(27,49,72)"></path><path d="M 112.292 65.16 C 112.231 67.582 111.38 68.793 109.738 68.793 C 108.978 68.793 108.02 68.43 106.865 67.703 C 106.074 67.279 105.299 65.902 104.539 63.571 C 103.687 60.999 102.927 59.288 102.258 58.441 C 101.285 61.074 99.993 63.208 98.381 64.843 C 96.8 66.447 94.869 67.718 92.589 68.656 C 91.859 68.959 91.205 69.216 90.627 69.428 C 90.05 69.61 89.502 69.701 88.986 69.701 C 88.56 69.701 88.347 69.58 88.347 69.338 C 88.347 69.126 88.621 68.747 89.168 68.202 C 90.567 66.871 91.768 65.509 92.771 64.116 C 93.805 62.724 94.656 61.256 95.325 59.712 C 95.994 58.138 96.496 56.474 96.831 54.718 C 97.195 52.962 97.423 51.041 97.515 48.952 L 92.908 48.952 L 91.312 49.134 L 90.901 45.547 L 92.817 45.638 L 105.724 45.638 C 107.154 44.215 108.127 43.504 108.643 43.504 C 109.008 43.504 109.358 43.67 109.693 44.003 C 110.848 45.123 111.715 46.016 112.292 46.682 C 112.9 47.318 113.204 47.772 113.204 48.044 C 113.204 48.71 112.353 49.043 110.65 49.043 L 104.949 49.043 C 104.432 51.646 103.93 53.583 103.444 54.854 C 109.434 58.275 112.383 61.71 112.292 65.16 Z M 128.986 46.546 C 129.138 47.635 128.089 48.392 125.838 48.816 L 125.838 69.201 C 125.96 69.897 126.021 70.503 126.021 71.017 C 126.021 71.986 125.626 72.606 124.835 72.879 C 124.257 73.06 122.843 73.151 120.593 73.151 C 119.347 73.151 118.647 73.106 118.495 73.015 C 118.252 72.773 118.13 71.986 118.13 70.654 L 118.13 43.867 C 118.739 44.018 119.453 44.139 120.274 44.23 C 121.095 44.321 122.038 44.397 123.102 44.457 C 125.23 44.578 126.614 44.715 127.252 44.866 C 128.377 45.169 128.955 45.729 128.986 46.546 Z M 118.678 57.624 L 110.97 57.624 L 109.464 57.715 L 108.917 54.219 L 118.632 54.219 Z M 125.656 85.183 L 96.557 85.183 C 95.067 85.183 94.003 84.956 93.364 84.502 C 92.604 83.927 92.224 82.898 92.224 81.414 L 92.224 70.927 C 92.741 71.048 93.592 71.169 94.778 71.29 C 95.964 71.381 97.484 71.456 99.339 71.517 C 101.589 71.668 102.729 72.183 102.76 73.06 C 102.699 73.666 102.319 74.12 101.62 74.423 C 101.376 74.483 101.118 74.559 100.844 74.65 C 100.571 74.74 100.312 74.816 100.069 74.877 L 100.069 79.19 C 100.069 80.158 100.236 80.809 100.571 81.142 C 100.905 81.475 101.589 81.641 102.623 81.641 L 119.316 81.641 C 119.62 81.309 119.924 80.991 120.228 80.688 C 120.533 80.385 120.837 80.068 121.141 79.735 C 121.749 79.19 122.296 78.917 122.783 78.917 C 123.178 78.917 123.543 79.023 123.877 79.235 C 126.948 81.475 128.484 83.079 128.484 84.048 C 128.484 84.804 127.541 85.183 125.656 85.183 Z" fill="rgb(27,49,72)"></path></svg>